<?xml version="1.0" encoding="UTF-8"?>
<svg id="Ebene_2" data-name="Ebene 2" xmlns="http://www.w3.org/2000/svg" width="247.26mm" height="254.9mm" xmlns:xlink="http://www.w3.org/1999/xlink" viewBox="0 0 700.9 722.54">
  <image width="700" height="700" transform="translate(54.19 527.37) rotate(-24.41) scale(.08)" xlink:href="Food-Icons/Grünkohl-noun-lettuce-4603163.png"/>
  <image width="700" height="700" transform="translate(28.07 275.33) scale(.12)" xlink:href="Food-Icons/gurke-noun-cucumber-4603162.png"/>
  <image width="700" height="700" transform="translate(314.7 169.04) scale(.04)" xlink:href="Food-Icons/johannisbeere-noun-currant-1510149.png"/>
  <image width="700" height="700" transform="translate(371.31 31.26) scale(.1)" xlink:href="Food-Icons/karotte-noun-carrot-4603171.png"/>
  <image width="700" height="700" transform="translate(149.65 45.14) scale(.1)" xlink:href="Food-Icons/lauch-noun-spring-onion-3184804.png"/>
  <image width="700" height="700" transform="translate(638.03 513.12) scale(.09)" xlink:href="Food-Icons/mangold-noun-chard-4371107.png"/>
  <image width="700" height="700" transform="translate(130.69 158.7) rotate(-12.2) scale(.06)" xlink:href="Food-Icons/noun-apple-4078445.png"/>
  <image width="700" height="700" transform="translate(425.97 513.42) rotate(13.93) scale(.08)" xlink:href="Food-Icons/noun-arugula-4371086.png"/>
  <image width="700" height="700" transform="translate(376.06 393.41) scale(.05)" xlink:href="Food-Icons/noun-banana-1237792.png"/>
  <image width="700" height="700" transform="translate(201.93 624.08) rotate(25.81) scale(.09)" xlink:href="Food-Icons/noun-barberry-619546.png"/>
  <image width="700" height="700" transform="translate(287.58 208.18) scale(.04)" xlink:href="Food-Icons/noun-blackberry-2023276.png"/>
  <image width="700" height="700" transform="translate(264.85 167.87) scale(.02)" xlink:href="Food-Icons/noun-blueberries-2023284.png"/>
  <image width="700" height="700" transform="translate(27.79 504.44) scale(.04)" xlink:href="Food-Icons/noun-cabbage-4504761.png"/>
  <image width="700" height="700" transform="translate(268.65 409.11) rotate(-20.99) scale(.07)" xlink:href="Food-Icons/noun-carambola-3413059.png"/>
  <image width="700" height="700" transform="translate(502.28 48.59) scale(.05)" xlink:href="Food-Icons/noun-carrot-1238436.png"/>
  <image width="700" height="700" transform="translate(533.36 67.82) scale(.05)" xlink:href="Food-Icons/noun-celery-1048325.png"/>
  <image width="700" height="700" transform="translate(124.49 495.34) scale(.11)" xlink:href="Food-Icons/noun-celery-1335466.png"/>
  <image width="700" height="700" transform="translate(150.95 611.34) rotate(6.05) scale(.06)" xlink:href="Food-Icons/noun-cherry-4372020.png"/>
  <image width="700" height="700" transform="translate(483.19 52.93) scale(.04)" xlink:href="Food-Icons/schwarzwurzel-noun-burdock-root-4784065.png"/>
  <image width="700" height="700" transform="translate(585.38 519.56) rotate(-48.07) scale(.07)" xlink:href="Food-Icons/spargel-noun-asparagus-4780525.png"/>
  <image width="700" height="700" transform="translate(49.09 538.5) rotate(11.33) scale(.06)" xlink:href="Food-Icons/spinat-noun-spinach-4603147.png"/>
  <image width="700" height="700" transform="translate(351.44 480.97) rotate(6.54) scale(.11)" xlink:href="Food-Icons/salat-noun-lettuce-356891.png"/>
  <image width="700" height="700" transform="translate(413.36 66.37) scale(.08)" xlink:href="Food-Icons/rote bete-noun-beetroot-4500067.png"/>
  <image width="700" height="700" transform="translate(241.88 72.09) rotate(-55.57) scale(.07)" xlink:href="Food-Icons/rettich-noun-radish-3184808.png"/>
  <image width="700" height="700" transform="translate(0 78.65) rotate(-51.4) scale(.14)" xlink:href="Food-Icons/radieschen-noun-radishes-356901.png"/>
  <image width="700" height="700" transform="translate(285.52 77.16) rotate(-29.69) scale(.1)" xlink:href="Food-Icons/pastinake-noun-carrot-4603174.png"/>
  <image width="700" height="700" transform="translate(372.03 281.25) rotate(-20.23) scale(.1)" xlink:href="Food-Icons/noun-zucchini-4500054.png"/>
  <image width="700" height="700" transform="translate(651.05 636.3) scale(.06)" xlink:href="Food-Icons/noun-watermelon-2023275.png"/>
  <image width="700" height="700" transform="translate(153.12 269.36) scale(.1)" xlink:href="Food-Icons/noun-tomato-1365113.png"/>
  <image width="700" height="700" transform="translate(313.6 643.24) scale(.05)" xlink:href="Food-Icons/noun-tangerine-1237843.png"/>
  <image width="700" height="700" transform="translate(371.11 174.02) rotate(-25.81) scale(.04)" xlink:href="Food-Icons/noun-strawberries-2023266.png"/>
  <image width="700" height="700" transform="translate(261.39 497.53) rotate(11) scale(.06)" xlink:href="Food-Icons/noun-red-onion-4371080.png"/>
  <image width="700" height="700" transform="translate(29.87 171.44) rotate(-10.17) scale(.04)" xlink:href="Food-Icons/noun-raspberries-2023272.png"/>
  <image width="700" height="700" transform="translate(298.85 522.66) scale(.08)" xlink:href="Food-Icons/noun-radicchio-4371078.png"/>
  <image width="700" height="700" transform="translate(189.55 164.4) scale(.06)" xlink:href="Food-Icons/noun-quince-1320538.png"/>
  <image width="700" height="700" transform="translate(278.03 273.7) scale(.08)" xlink:href="Food-Icons/noun-pumpkin-2023270.png"/>
  <image width="700" height="700" transform="translate(652.78 193.02) scale(.04)" xlink:href="Food-Icons/noun-plum-4371723.png"/>
  <image width="700" height="700" transform="translate(591.04 172.16) rotate(-30.17) scale(.06)" xlink:href="Food-Icons/noun-plum-235577.png"/>
  <image width="700" height="700" transform="translate(53.75 378.82) rotate(18.29) scale(.09)" xlink:href="Food-Icons/noun-pineapple-2878426.png"/>
  <image width="700" height="700" transform="translate(606.81 278.03) scale(.08)" xlink:href="Food-Icons/noun-pepper-4780523.png"/>
  <image width="700" height="700" transform="translate(487.26 276.78) rotate(11.01) scale(.05)" xlink:href="Food-Icons/noun-peas-2007525.png"/>
  <image width="700" height="700" transform="translate(156.39 204.83) rotate(-2.59) scale(.06)" xlink:href="Food-Icons/noun-pear-4084133.png"/>
  <image width="700" height="700" transform="translate(63.77 618.08) scale(.07)" xlink:href="Food-Icons/noun-peach-4371696.png"/>
  <image width="700" height="700" transform="translate(549.37 171.62) rotate(35.65) scale(.07)" xlink:href="Food-Icons/noun-peach-1159547.png"/>
  <image width="700" height="700" transform="translate(649.31 409.89) scale(.05)" xlink:href="Food-Icons/noun-papaya-2023271.png"/>
  <image width="700" height="700" transform="translate(192.23 536.8) rotate(-14.1) scale(.06)" xlink:href="Food-Icons/noun-onion-3392912.png"/>
  <image width="700" height="700" transform="translate(436.3 408.35) rotate(36.58) scale(.05)" xlink:href="Food-Icons/noun-mango-5013544.png"/>
  <image width="700" height="700" transform="translate(518.32 405.55) scale(.04)" xlink:href="Food-Icons/noun-lychee-5011491.png"/>
  <image width="700" height="700" transform="translate(196.49 415.96) scale(.05)" xlink:href="Food-Icons/noun-lime-2023360.png"/>
  <image width="700" height="700" transform="translate(253.35 625.93) rotate(-14.48) scale(.06)" xlink:href="Food-Icons/noun-lemon-4371828.png"/>
  <image width="700" height="700" transform="translate(648.69 66.31) rotate(12.14) scale(.07)" xlink:href="Food-Icons/noun-kohlrabi-706154.png"/>
  <image width="700" height="700" transform="translate(391.35 627.13) rotate(11.78) scale(.06)" xlink:href="Food-Icons/noun-kiwi-2945479.png"/>
  <image width="700" height="700" transform="translate(593.79 395.14) scale(.05)" xlink:href="Food-Icons/noun-guava-4084130.png"/>
  <image width="700" height="700" transform="translate(540.88 302.32) scale(.04)" xlink:href="Food-Icons/noun-green-beans-1530360.png"/>
  <image width="700" height="700" transform="translate(465.91 636.3) rotate(-45) scale(.07)" xlink:href="Food-Icons/noun-grapes-409760.png"/>
  <image width="700" height="700" transform="translate(491.44 176.56) rotate(-32.24) scale(.04)" xlink:href="Food-Icons/noun-gooseberry-5013513.png"/>
  <image width="700" height="700" transform="translate(590.24 618.54) rotate(-14) scale(.06)" xlink:href="Food-Icons/noun-garnet-5013550.png"/>
  <image width="700" height="700" transform="translate(545.53 627.17) rotate(25.96) scale(.07)" xlink:href="Food-Icons/noun-fig-1159546.png"/>
  <image width="700" height="700" transform="translate(88.93 175.67) scale(.03)" xlink:href="Food-Icons/noun-currant-4371722.png"/>
  <image width="700" height="700" transform="translate(430.71 191.29) scale(.03)" xlink:href="Food-Icons/noun-cherry-2023290.png"/>
  <image width="700" height="700" transform="translate(501.84 500.11) scale(.08)" xlink:href="Food-Icons/Reservebank/kohl-noun-cabbage-4371106.png"/>
  <image width="700" height="700" transform="translate(584.93 36.47) scale(.1)" xlink:href="Food-Icons/fenchel-noun-fennel-4500071.png"/>
</svg>