<?xml version="1.0" encoding="UTF-8"?>
<svg id="Saison-Overlay" xmlns="http://www.w3.org/2000/svg" width="247.26mm" height="254.9mm" xmlns:xlink="http://www.w3.org/1999/xlink" viewBox="0 0 700.9 722.54">
  <defs>
    <style>
    </style>
    <image id="image" width="152" height="152" xlink:href="Food-Icons/Kisten/Kistenstapel 3a-1.png"/>
    <image id="image-2" width="152" height="152" xlink:href="Food-Icons/Kisten/Kistenstapel 3-3.png"/>
    <image id="image-3" width="152" height="152" xlink:href="Food-Icons/Kisten/Kistenstapel 1b.png"/>
    <image id="image-4" width="152" height="152" xlink:href="Food-Icons/Kisten/Kistenstapel 3-0-2.png"/>
    <image id="image-5" width="152" height="152" xlink:href="Food-Icons/Kisten/Kistenstapel 1-3.png"/>
    <image id="image-6" width="152" height="152" xlink:href="Food-Icons/Kisten/Kistenstapel 1a.png"/>
    <image id="image-7" width="152" height="152" xlink:href="Food-Icons/Kisten/Kistenstapel 1-0.png"/>
    <image id="image-8" width="152" height="152" xlink:href="Food-Icons/Kisten/Kistenstapel 3a.png"/>
    <image id="image-9" width="152" height="152" xlink:href="Food-Icons/Kisten/Kistenstapel 0-2.png"/>
    <image id="image-10" width="152" height="152" xlink:href="Food-Icons/Kisten/Kistenstapel 3b.png"/>
    <image id="image-11" width="152" height="152" xlink:href="Food-Icons/Kisten/Kistenstapel 1-1.png"/>
  </defs>
  <use transform="translate(12.73 38.95) scale(.73)" xlink:href="#image"/>
  <use transform="translate(129.19 264.27) scale(.73)" xlink:href="#image"/>
  <use transform="translate(130.45 40.22) scale(.72)" xlink:href="#image-8"/>
  <image width="152" height="152" transform="translate(245.64 37.69) scale(.72)" xlink:href="Food-Icons/Kisten/Kistenstapel 2-1.png"/>
  <image width="152" height="152" transform="translate(358.3 36.42) scale(.74)" xlink:href="Food-Icons/Kisten/Kistenstapel 3-2.png"/>
  <image width="152" height="152" transform="translate(472.22 37.69) scale(.72)" xlink:href="Food-Icons/Kisten/Kistenstapel 0-3.png"/>
  <image width="152" height="152" transform="translate(584.88 40.22) scale(.73)" xlink:href="Food-Icons/Kisten/Kistenstapel 1-2.png"/>
  <use transform="translate(13.99 151.61) scale(.73)" xlink:href="#image-7"/>
  <use transform="translate(130.45 151.61) scale(.74)" xlink:href="#image-4"/>
  <image width="152" height="152" transform="translate(246.91 151.61) scale(.73)" xlink:href="Food-Icons/Kisten/Kistenstapel 1-0-0.png"/>
  <use transform="translate(355.77 150.35) scale(.76)" xlink:href="#image-5"/>
  <use transform="translate(472.22 149.08) scale(.74)" xlink:href="#image-11"/>
  <use transform="translate(584.88 151.61) scale(.74)" xlink:href="#image-7"/>
  <use transform="translate(16.53 266.8) scale(.73)" xlink:href="#image-10"/>
  <use transform="translate(244.37 266.8) scale(.74)" xlink:href="#image-6"/>
  <use transform="translate(357.03 264.27) scale(.75)" xlink:href="#image-10"/>
  <use transform="translate(472.22 264.27) scale(.74)" xlink:href="#image-2"/>
  <use transform="translate(586.15 264.27) scale(.73)" xlink:href="#image-8"/>
  <use transform="translate(16.53 378.19) scale(.75)" xlink:href="#image-3"/>
  <use transform="translate(130.45 379.46) scale(.74)" xlink:href="#image-9"/>
  <image width="152" height="152" transform="translate(357.03 378.19) scale(.75)" xlink:href="Food-Icons/Kisten/Kistenstapel 3-1.png"/>
  <use transform="translate(472.22 383.26) scale(.72)" xlink:href="#image-6"/>
  <image width="152" height="152" transform="translate(581.11 377.62) scale(.74)" xlink:href="Food-Icons/Kisten/Kistenstapel 0-1.png"/>
  <use transform="translate(581.08 490.85) scale(.77)" xlink:href="#image-9"/>
  <image width="152" height="152" transform="translate(470.96 490.85) scale(.74)" xlink:href="Food-Icons/Kisten/Kistenstapel 2a.png"/>
  <use transform="translate(358.3 490.85) scale(.75)" xlink:href="#image-2"/>
  <image width="152" height="152" transform="translate(243.11 492.12) scale(.75)" xlink:href="Food-Icons/Kisten/Kistenstapel 2-3.png"/>
  <use transform="translate(130.45 492.12) scale(.75)" xlink:href="#image-5"/>
  <use transform="translate(17.79 494.65) scale(.73)" xlink:href="#image-4"/>
  <use transform="translate(15.26 607.31) scale(.76)" xlink:href="#image"/>
  <image width="152" height="152" transform="translate(131.72 604.78) scale(.74)" xlink:href="Food-Icons/Kisten/Kistenstapel 3-0.png"/>
  <image width="152" height="152" transform="translate(244.4 606.55) scale(.74)" xlink:href="Food-Icons/Kisten/Kistenstapel 2-0.png"/>
  <use transform="translate(355.77 604.78) scale(.75)" xlink:href="#image-3"/>
  <use transform="translate(470.96 603.51) scale(.74)" xlink:href="#image-11"/>
  <use transform="translate(582.35 603.51) scale(.76)" xlink:href="#image-5"/>
</svg>