<svg width="6972" height="8044" viewBox="0 0 6972 8044" fill="none" xmlns="http://www.w3.org/2000/svg">
<rect width="6972" height="8044" fill="white" fill-opacity="0.1"/>
<mask id="path-1-outside-1_422_5039" maskUnits="userSpaceOnUse" x="686" y="930" width="5600" height="816" fill="black">
<rect fill="white" x="686" y="930" width="5600" height="816"/>
<path d="M686 930H6286V1730H686V930Z"/>
</mask>
<path d="M6286 1714H686V1746H6286V1714Z" fill="#888888" mask="url(#path-1-outside-1_422_5039)"/>
<rect width="800" height="800" transform="translate(1486 930)" fill="black"/>
<g filter="url(#filter0_dd_422_5039)">
<path d="M1850.89 1331.48C1850.89 1336.39 1853.45 1340.23 1858.57 1343C1863.9 1345.77 1870.62 1348.01 1878.73 1349.72C1887.05 1351.43 1895.8 1353.35 1904.97 1355.48C1914.14 1357.4 1922.78 1360.17 1930.89 1363.8C1939.21 1367.43 1945.93 1372.44 1951.05 1378.84C1956.38 1385.24 1959.05 1393.67 1959.05 1404.12C1959.05 1414.15 1955.96 1423 1949.77 1430.68C1943.8 1438.15 1935.26 1443.91 1924.17 1447.96C1913.29 1452.23 1900.6 1454.36 1886.09 1454.36C1877.77 1454.36 1869.34 1453.29 1860.81 1451.16C1852.28 1449.24 1844.38 1446.47 1837.13 1442.84C1829.88 1439.21 1824.01 1434.84 1819.53 1429.72C1815.05 1424.6 1812.81 1418.95 1812.81 1412.76C1812.81 1407 1814.84 1402.2 1818.89 1398.36C1822.94 1394.31 1827.64 1392.28 1832.97 1392.28C1838.94 1392.28 1843.74 1394.41 1847.37 1398.68C1851.21 1402.73 1853.13 1407.43 1853.13 1412.76C1853.13 1413.4 1853.13 1414.04 1853.13 1414.68C1853.13 1415.32 1853.02 1415.96 1852.81 1416.6V1417.24C1852.81 1418.52 1853.45 1419.48 1854.73 1420.12C1859 1422.04 1863.8 1423.75 1869.13 1425.24C1874.46 1426.73 1880.12 1427.48 1886.09 1427.48C1899.53 1427.48 1910.41 1425.24 1918.73 1420.76C1927.05 1416.28 1931.21 1410.41 1931.21 1403.16C1931.21 1397.61 1928.54 1393.35 1923.21 1390.36C1918.09 1387.37 1911.37 1384.92 1903.05 1383C1894.94 1380.87 1886.3 1378.73 1877.13 1376.6C1867.96 1374.47 1859.21 1371.8 1850.89 1368.6C1842.78 1365.19 1836.06 1360.6 1830.73 1354.84C1825.61 1348.87 1823.05 1341.08 1823.05 1331.48C1823.05 1316.12 1829.13 1304.07 1841.29 1295.32C1853.66 1286.36 1869.98 1281.88 1890.25 1281.88C1901.98 1281.88 1912.33 1283.37 1921.29 1286.36C1930.25 1289.35 1937.29 1293.51 1942.41 1298.84C1947.74 1303.96 1950.41 1309.93 1950.41 1316.76C1950.41 1317.4 1950.41 1318.15 1950.41 1319C1950.41 1319.64 1950.3 1320.28 1950.09 1320.92C1949.45 1325.61 1947.21 1329.56 1943.37 1332.76C1939.53 1335.96 1935.16 1337.56 1930.25 1337.56C1924.06 1337.56 1918.94 1335.21 1914.89 1330.52C1911.05 1325.61 1909.56 1320.17 1910.41 1314.2V1313.56C1910.41 1312.28 1909.77 1311.32 1908.49 1310.68C1905.72 1309.83 1902.84 1309.19 1899.85 1308.76C1897.08 1308.33 1893.88 1308.12 1890.25 1308.12C1878.94 1308.12 1869.56 1310.25 1862.09 1314.52C1854.62 1318.79 1850.89 1324.44 1850.89 1331.48Z" fill="white"/>
</g>
<rect width="800" height="800" transform="translate(2286 930)" fill="white"/>
<g filter="url(#filter1_dd_422_5039)">
<path d="M2809.23 1281.24C2812.85 1281.03 2816.05 1282.2 2818.83 1284.76C2821.6 1287.32 2822.99 1290.52 2822.99 1294.36C2822.99 1298.41 2821.6 1301.72 2818.83 1304.28C2816.05 1306.63 2812.75 1307.69 2808.91 1307.48L2800.91 1306.84H2799.95C2798.88 1306.84 2798.03 1307.59 2797.39 1309.08L2753.23 1443.16C2752.16 1446.57 2750.13 1449.35 2747.15 1451.48C2744.16 1453.61 2740.85 1454.68 2737.23 1454.68C2733.81 1454.68 2730.61 1453.61 2727.63 1451.48C2724.64 1449.35 2722.61 1446.57 2721.55 1443.16L2687.63 1333.4C2687.41 1332.12 2686.77 1331.48 2685.71 1331.48C2684.85 1331.48 2684.21 1332.12 2683.79 1333.4L2649.55 1442.84C2648.48 1446.25 2646.45 1449.03 2643.47 1451.16C2640.48 1453.51 2637.17 1454.68 2633.55 1454.68C2629.92 1454.68 2626.61 1453.51 2623.63 1451.16C2620.64 1449.03 2618.61 1446.25 2617.55 1442.84L2573.71 1309.08C2573.07 1307.16 2571.89 1306.41 2570.19 1306.84L2563.15 1307.48C2559.31 1307.69 2556 1306.63 2553.23 1304.28C2550.45 1301.72 2549.07 1298.41 2549.07 1294.36C2549.07 1290.52 2550.45 1287.32 2553.23 1284.76C2556 1282.2 2559.2 1281.03 2562.83 1281.24C2568.37 1281.67 2573.17 1282.09 2577.23 1282.52C2581.49 1282.73 2585.55 1282.84 2589.39 1282.84C2593.23 1282.84 2597.17 1282.73 2601.23 1282.52C2605.49 1282.09 2610.4 1281.67 2615.95 1281.24C2619.57 1281.03 2622.77 1282.2 2625.55 1284.76C2628.32 1287.32 2629.71 1290.52 2629.71 1294.36C2629.71 1298.2 2628.43 1301.4 2625.87 1303.96C2623.52 1306.31 2620.53 1307.48 2616.91 1307.48C2614.77 1307.48 2612.53 1307.37 2610.19 1307.16C2608.05 1306.95 2605.81 1306.73 2603.47 1306.52H2602.83C2600.91 1306.52 2600.27 1307.59 2600.91 1309.72L2632.27 1406.04C2632.69 1407.32 2633.33 1407.96 2634.19 1407.96C2635.04 1407.96 2635.68 1407.21 2636.11 1405.72L2668.11 1297.88C2669.39 1294.04 2671.63 1290.95 2674.83 1288.6C2678.03 1286.04 2681.65 1284.76 2685.71 1284.76C2689.76 1284.76 2693.39 1286.04 2696.59 1288.6C2699.79 1290.95 2702.03 1294.04 2703.31 1297.88L2735.31 1405.72C2735.73 1407 2736.37 1407.64 2737.23 1407.64C2738.29 1407.64 2738.93 1407 2739.15 1405.72L2770.19 1309.72C2770.19 1309.51 2770.19 1309.4 2770.19 1309.4C2770.4 1309.19 2770.51 1308.97 2770.51 1308.76C2770.51 1307.27 2769.76 1306.52 2768.27 1306.52C2766.13 1306.52 2764 1306.73 2761.87 1307.16C2759.73 1307.37 2757.49 1307.48 2755.15 1307.48C2751.73 1307.48 2748.75 1306.31 2746.19 1303.96C2743.63 1301.4 2742.35 1298.2 2742.35 1294.36C2742.35 1290.52 2743.73 1287.32 2746.51 1284.76C2749.28 1282.2 2752.48 1281.03 2756.11 1281.24C2761.65 1281.67 2766.45 1282.09 2770.51 1282.52C2774.77 1282.73 2778.83 1282.84 2782.67 1282.84C2786.51 1282.84 2790.56 1282.73 2794.83 1282.52C2799.09 1282.09 2803.89 1281.67 2809.23 1281.24Z" fill="black"/>
</g>
<rect width="800" height="800" transform="translate(3086 930)" fill="black"/>
<g filter="url(#filter2_dd_422_5039)">
<path d="M3450.89 1331.48C3450.89 1336.39 3453.45 1340.23 3458.57 1343C3463.9 1345.77 3470.62 1348.01 3478.73 1349.72C3487.05 1351.43 3495.8 1353.35 3504.97 1355.48C3514.14 1357.4 3522.78 1360.17 3530.89 1363.8C3539.21 1367.43 3545.93 1372.44 3551.05 1378.84C3556.38 1385.24 3559.05 1393.67 3559.05 1404.12C3559.05 1414.15 3555.96 1423 3549.77 1430.68C3543.8 1438.15 3535.26 1443.91 3524.17 1447.96C3513.29 1452.23 3500.6 1454.36 3486.09 1454.36C3477.77 1454.36 3469.34 1453.29 3460.81 1451.16C3452.28 1449.24 3444.38 1446.47 3437.13 1442.84C3429.88 1439.21 3424.01 1434.84 3419.53 1429.72C3415.05 1424.6 3412.81 1418.95 3412.81 1412.76C3412.81 1407 3414.84 1402.2 3418.89 1398.36C3422.94 1394.31 3427.64 1392.28 3432.97 1392.28C3438.94 1392.28 3443.74 1394.41 3447.37 1398.68C3451.21 1402.73 3453.13 1407.43 3453.13 1412.76C3453.13 1413.4 3453.13 1414.04 3453.13 1414.68C3453.13 1415.32 3453.02 1415.96 3452.81 1416.6V1417.24C3452.81 1418.52 3453.45 1419.48 3454.73 1420.12C3459 1422.04 3463.8 1423.75 3469.13 1425.24C3474.46 1426.73 3480.12 1427.48 3486.09 1427.48C3499.53 1427.48 3510.41 1425.24 3518.73 1420.76C3527.05 1416.28 3531.21 1410.41 3531.21 1403.16C3531.21 1397.61 3528.54 1393.35 3523.21 1390.36C3518.09 1387.37 3511.37 1384.92 3503.05 1383C3494.94 1380.87 3486.3 1378.73 3477.13 1376.6C3467.96 1374.47 3459.21 1371.8 3450.89 1368.6C3442.78 1365.19 3436.06 1360.6 3430.73 1354.84C3425.61 1348.87 3423.05 1341.08 3423.05 1331.48C3423.05 1316.12 3429.13 1304.07 3441.29 1295.32C3453.66 1286.36 3469.98 1281.88 3490.25 1281.88C3501.98 1281.88 3512.33 1283.37 3521.29 1286.36C3530.25 1289.35 3537.29 1293.51 3542.41 1298.84C3547.74 1303.96 3550.41 1309.93 3550.41 1316.76C3550.41 1317.4 3550.41 1318.15 3550.41 1319C3550.41 1319.64 3550.3 1320.28 3550.09 1320.92C3549.45 1325.61 3547.21 1329.56 3543.37 1332.76C3539.53 1335.96 3535.16 1337.56 3530.25 1337.56C3524.06 1337.56 3518.94 1335.21 3514.89 1330.52C3511.05 1325.61 3509.56 1320.17 3510.41 1314.2V1313.56C3510.41 1312.28 3509.77 1311.32 3508.49 1310.68C3505.72 1309.83 3502.84 1309.19 3499.85 1308.76C3497.08 1308.33 3493.88 1308.12 3490.25 1308.12C3478.94 1308.12 3469.56 1310.25 3462.09 1314.52C3454.62 1318.79 3450.89 1324.44 3450.89 1331.48Z" fill="white"/>
</g>
<rect width="800" height="800" transform="translate(3886 930)" fill="white"/>
<g filter="url(#filter3_dd_422_5039)">
<path d="M4409.23 1281.24C4412.85 1281.03 4416.05 1282.2 4418.83 1284.76C4421.6 1287.32 4422.99 1290.52 4422.99 1294.36C4422.99 1298.41 4421.6 1301.72 4418.83 1304.28C4416.05 1306.63 4412.75 1307.69 4408.91 1307.48L4400.91 1306.84H4399.95C4398.88 1306.84 4398.03 1307.59 4397.39 1309.08L4353.23 1443.16C4352.16 1446.57 4350.13 1449.35 4347.15 1451.48C4344.16 1453.61 4340.85 1454.68 4337.23 1454.68C4333.81 1454.68 4330.61 1453.61 4327.63 1451.48C4324.64 1449.35 4322.61 1446.57 4321.55 1443.16L4287.63 1333.4C4287.41 1332.12 4286.77 1331.48 4285.71 1331.48C4284.85 1331.48 4284.21 1332.12 4283.79 1333.4L4249.55 1442.84C4248.48 1446.25 4246.45 1449.03 4243.47 1451.16C4240.48 1453.51 4237.17 1454.68 4233.55 1454.68C4229.92 1454.68 4226.61 1453.51 4223.63 1451.16C4220.64 1449.03 4218.61 1446.25 4217.55 1442.84L4173.71 1309.08C4173.07 1307.16 4171.89 1306.41 4170.19 1306.84L4163.15 1307.48C4159.31 1307.69 4156 1306.63 4153.23 1304.28C4150.45 1301.72 4149.07 1298.41 4149.07 1294.36C4149.07 1290.52 4150.45 1287.32 4153.23 1284.76C4156 1282.2 4159.2 1281.03 4162.83 1281.24C4168.37 1281.67 4173.17 1282.09 4177.23 1282.52C4181.49 1282.73 4185.55 1282.84 4189.39 1282.84C4193.23 1282.84 4197.17 1282.73 4201.23 1282.52C4205.49 1282.09 4210.4 1281.67 4215.95 1281.24C4219.57 1281.03 4222.77 1282.2 4225.55 1284.76C4228.32 1287.32 4229.71 1290.52 4229.71 1294.36C4229.71 1298.2 4228.43 1301.4 4225.87 1303.96C4223.52 1306.31 4220.53 1307.48 4216.91 1307.48C4214.77 1307.48 4212.53 1307.37 4210.19 1307.16C4208.05 1306.95 4205.81 1306.73 4203.47 1306.52H4202.83C4200.91 1306.52 4200.27 1307.59 4200.91 1309.72L4232.27 1406.04C4232.69 1407.32 4233.33 1407.96 4234.19 1407.96C4235.04 1407.96 4235.68 1407.21 4236.11 1405.72L4268.11 1297.88C4269.39 1294.04 4271.63 1290.95 4274.83 1288.6C4278.03 1286.04 4281.65 1284.76 4285.71 1284.76C4289.76 1284.76 4293.39 1286.04 4296.59 1288.6C4299.79 1290.95 4302.03 1294.04 4303.31 1297.88L4335.31 1405.72C4335.73 1407 4336.37 1407.64 4337.23 1407.64C4338.29 1407.64 4338.93 1407 4339.15 1405.72L4370.19 1309.72C4370.19 1309.51 4370.19 1309.4 4370.19 1309.4C4370.4 1309.19 4370.51 1308.97 4370.51 1308.76C4370.51 1307.27 4369.76 1306.52 4368.27 1306.52C4366.13 1306.52 4364 1306.73 4361.87 1307.16C4359.73 1307.37 4357.49 1307.48 4355.15 1307.48C4351.73 1307.48 4348.75 1306.31 4346.19 1303.96C4343.63 1301.4 4342.35 1298.2 4342.35 1294.36C4342.35 1290.52 4343.73 1287.32 4346.51 1284.76C4349.28 1282.2 4352.48 1281.03 4356.11 1281.24C4361.65 1281.67 4366.45 1282.09 4370.51 1282.52C4374.77 1282.73 4378.83 1282.84 4382.67 1282.84C4386.51 1282.84 4390.56 1282.73 4394.83 1282.52C4399.09 1282.09 4403.89 1281.67 4409.23 1281.24Z" fill="black"/>
</g>
<rect width="800" height="800" transform="translate(4686 930)" fill="black"/>
<g filter="url(#filter4_dd_422_5039)">
<path d="M5050.89 1331.48C5050.89 1336.39 5053.45 1340.23 5058.57 1343C5063.9 1345.77 5070.62 1348.01 5078.73 1349.72C5087.05 1351.43 5095.8 1353.35 5104.97 1355.48C5114.14 1357.4 5122.78 1360.17 5130.89 1363.8C5139.21 1367.43 5145.93 1372.44 5151.05 1378.84C5156.38 1385.24 5159.05 1393.67 5159.05 1404.12C5159.05 1414.15 5155.96 1423 5149.77 1430.68C5143.8 1438.15 5135.26 1443.91 5124.17 1447.96C5113.29 1452.23 5100.6 1454.36 5086.09 1454.36C5077.77 1454.36 5069.34 1453.29 5060.81 1451.16C5052.28 1449.24 5044.38 1446.47 5037.13 1442.84C5029.88 1439.21 5024.01 1434.84 5019.53 1429.72C5015.05 1424.6 5012.81 1418.95 5012.81 1412.76C5012.81 1407 5014.84 1402.2 5018.89 1398.36C5022.94 1394.31 5027.64 1392.28 5032.97 1392.28C5038.94 1392.28 5043.74 1394.41 5047.37 1398.68C5051.21 1402.73 5053.13 1407.43 5053.13 1412.76C5053.13 1413.4 5053.13 1414.04 5053.13 1414.68C5053.13 1415.32 5053.02 1415.96 5052.81 1416.6V1417.24C5052.81 1418.52 5053.45 1419.48 5054.73 1420.12C5059 1422.04 5063.8 1423.75 5069.13 1425.24C5074.46 1426.73 5080.12 1427.48 5086.09 1427.48C5099.53 1427.48 5110.41 1425.24 5118.73 1420.76C5127.05 1416.28 5131.21 1410.41 5131.21 1403.16C5131.21 1397.61 5128.54 1393.35 5123.21 1390.36C5118.09 1387.37 5111.37 1384.92 5103.05 1383C5094.94 1380.87 5086.3 1378.73 5077.13 1376.6C5067.96 1374.47 5059.21 1371.8 5050.89 1368.6C5042.78 1365.19 5036.06 1360.6 5030.73 1354.84C5025.61 1348.87 5023.05 1341.08 5023.05 1331.48C5023.05 1316.12 5029.13 1304.07 5041.29 1295.32C5053.66 1286.36 5069.98 1281.88 5090.25 1281.88C5101.98 1281.88 5112.33 1283.37 5121.29 1286.36C5130.25 1289.35 5137.29 1293.51 5142.41 1298.84C5147.74 1303.96 5150.41 1309.93 5150.41 1316.76C5150.41 1317.4 5150.41 1318.15 5150.41 1319C5150.41 1319.64 5150.3 1320.28 5150.09 1320.92C5149.45 1325.61 5147.21 1329.56 5143.37 1332.76C5139.53 1335.96 5135.16 1337.56 5130.25 1337.56C5124.06 1337.56 5118.94 1335.21 5114.89 1330.52C5111.05 1325.61 5109.56 1320.17 5110.41 1314.2V1313.56C5110.41 1312.28 5109.77 1311.32 5108.49 1310.68C5105.72 1309.83 5102.84 1309.19 5099.85 1308.76C5097.08 1308.33 5093.88 1308.12 5090.25 1308.12C5078.94 1308.12 5069.56 1310.25 5062.09 1314.52C5054.62 1318.79 5050.89 1324.44 5050.89 1331.48Z" fill="white"/>
</g>
<rect width="800" height="800" transform="translate(5486 930)" fill="white"/>
<g filter="url(#filter5_dd_422_5039)">
<path d="M6009.23 1281.24C6012.85 1281.03 6016.05 1282.2 6018.83 1284.76C6021.6 1287.32 6022.99 1290.52 6022.99 1294.36C6022.99 1298.41 6021.6 1301.72 6018.83 1304.28C6016.05 1306.63 6012.75 1307.69 6008.91 1307.48L6000.91 1306.84H5999.95C5998.88 1306.84 5998.03 1307.59 5997.39 1309.08L5953.23 1443.16C5952.16 1446.57 5950.13 1449.35 5947.15 1451.48C5944.16 1453.61 5940.85 1454.68 5937.23 1454.68C5933.81 1454.68 5930.61 1453.61 5927.63 1451.48C5924.64 1449.35 5922.61 1446.57 5921.55 1443.16L5887.63 1333.4C5887.41 1332.12 5886.77 1331.48 5885.71 1331.48C5884.85 1331.48 5884.21 1332.12 5883.79 1333.4L5849.55 1442.84C5848.48 1446.25 5846.45 1449.03 5843.47 1451.16C5840.48 1453.51 5837.17 1454.68 5833.55 1454.68C5829.92 1454.68 5826.61 1453.51 5823.63 1451.16C5820.64 1449.03 5818.61 1446.25 5817.55 1442.84L5773.71 1309.08C5773.07 1307.16 5771.89 1306.41 5770.19 1306.84L5763.15 1307.48C5759.31 1307.69 5756 1306.63 5753.23 1304.28C5750.45 1301.72 5749.07 1298.41 5749.07 1294.36C5749.07 1290.52 5750.45 1287.32 5753.23 1284.76C5756 1282.2 5759.2 1281.03 5762.83 1281.24C5768.37 1281.67 5773.17 1282.09 5777.23 1282.52C5781.49 1282.73 5785.55 1282.84 5789.39 1282.84C5793.23 1282.84 5797.17 1282.73 5801.23 1282.52C5805.49 1282.09 5810.4 1281.67 5815.95 1281.24C5819.57 1281.03 5822.77 1282.2 5825.55 1284.76C5828.32 1287.32 5829.71 1290.52 5829.71 1294.36C5829.71 1298.2 5828.43 1301.4 5825.87 1303.96C5823.52 1306.31 5820.53 1307.48 5816.91 1307.48C5814.77 1307.48 5812.53 1307.37 5810.19 1307.16C5808.05 1306.95 5805.81 1306.73 5803.47 1306.52H5802.83C5800.91 1306.52 5800.27 1307.59 5800.91 1309.72L5832.27 1406.04C5832.69 1407.32 5833.33 1407.96 5834.19 1407.96C5835.04 1407.96 5835.68 1407.21 5836.11 1405.72L5868.11 1297.88C5869.39 1294.04 5871.63 1290.95 5874.83 1288.6C5878.03 1286.04 5881.65 1284.76 5885.71 1284.76C5889.76 1284.76 5893.39 1286.04 5896.59 1288.6C5899.79 1290.95 5902.03 1294.04 5903.31 1297.88L5935.31 1405.72C5935.73 1407 5936.37 1407.64 5937.23 1407.64C5938.29 1407.64 5938.93 1407 5939.15 1405.72L5970.19 1309.72C5970.19 1309.51 5970.19 1309.4 5970.19 1309.4C5970.4 1309.19 5970.51 1308.97 5970.51 1308.76C5970.51 1307.27 5969.76 1306.52 5968.27 1306.52C5966.13 1306.52 5964 1306.73 5961.87 1307.16C5959.73 1307.37 5957.49 1307.48 5955.15 1307.48C5951.73 1307.48 5948.75 1306.31 5946.19 1303.96C5943.63 1301.4 5942.35 1298.2 5942.35 1294.36C5942.35 1290.52 5943.73 1287.32 5946.51 1284.76C5949.28 1282.2 5952.48 1281.03 5956.11 1281.24C5961.65 1281.67 5966.45 1282.09 5970.51 1282.52C5974.77 1282.73 5978.83 1282.84 5982.67 1282.84C5986.51 1282.84 5990.56 1282.73 5994.83 1282.52C5999.09 1282.09 6003.89 1281.67 6009.23 1281.24Z" fill="black"/>
</g>
<mask id="path-9-outside-2_422_5039" maskUnits="userSpaceOnUse" x="686" y="1746" width="5600" height="816" fill="black">
<rect fill="white" x="686" y="1746" width="5600" height="816"/>
<path d="M686 1746H6286V2546H686V1746Z"/>
</mask>
<path d="M6286 2530H686V2562H6286V2530Z" fill="#888888" mask="url(#path-9-outside-2_422_5039)"/>
<g filter="url(#filter6_ii_422_5039)">
<path d="M1069.02 1920.32C1076.84 1907.73 1095.16 1907.73 1102.98 1920.32L1166.47 2022.43C1169.22 2026.85 1173.6 2030.03 1178.66 2031.28L1295.39 2060.11C1309.78 2063.66 1315.44 2081.08 1305.89 2092.41L1228.39 2184.35C1225.03 2188.33 1223.36 2193.47 1223.74 2198.68L1232.39 2318.6C1233.46 2333.38 1218.64 2344.15 1204.91 2338.56L1093.53 2293.27C1088.7 2291.31 1083.3 2291.31 1078.47 2293.27L967.088 2338.56C953.359 2344.15 938.539 2333.38 939.606 2318.6L948.263 2198.68C948.638 2193.47 946.967 2188.33 943.607 2184.35L866.115 2092.41C856.563 2081.08 862.223 2063.66 876.612 2060.11L993.34 2031.28C998.402 2030.03 1002.78 2026.85 1005.53 2022.43L1069.02 1920.32Z" fill="#880000"/>
</g>
<rect width="800" height="800" transform="translate(1486 1746)" fill="black"/>
<g filter="url(#filter7_dd_422_5039)">
<path d="M1851.09 2058.84C1848.95 2058.84 1847.89 2059.8 1847.89 2061.72L1842.77 2125.72C1842.77 2128.07 1843.83 2128.92 1845.97 2128.28C1862.18 2124.65 1876.37 2122.84 1888.53 2122.84C1907.94 2122.84 1923.83 2126.36 1936.21 2133.4C1948.58 2140.23 1957.65 2149.19 1963.41 2160.28C1969.38 2171.37 1972.37 2183.21 1972.37 2195.8C1972.37 2203.91 1970.45 2212.33 1966.61 2221.08C1962.98 2229.83 1957.43 2237.93 1949.97 2245.4C1942.5 2252.87 1933.22 2258.95 1922.13 2263.64C1911.03 2268.33 1898.13 2270.68 1883.41 2270.68C1868.47 2270.68 1854.82 2268.23 1842.45 2263.32C1830.29 2258.63 1820.37 2251.69 1812.69 2242.52C1805.43 2233.99 1801.81 2225.77 1801.81 2217.88C1801.81 2213.83 1802.77 2210.2 1804.69 2207C1808.74 2199.75 1815.03 2196.12 1823.57 2196.12C1830.18 2196.12 1835.41 2198.36 1839.25 2202.84C1843.09 2207.11 1845.01 2212.01 1845.01 2217.56C1845.01 2221.19 1844.05 2224.81 1842.13 2228.44C1841.06 2230.15 1841.27 2231.43 1842.77 2232.28C1853.22 2239.96 1866.77 2243.8 1883.41 2243.8C1894.93 2243.8 1905.27 2241.77 1914.45 2237.72C1923.62 2233.67 1930.87 2228.12 1936.21 2221.08C1941.75 2214.04 1944.63 2206.25 1944.85 2197.72C1945.91 2165.08 1924.47 2148.76 1880.53 2148.76C1871.78 2148.76 1863.57 2149.61 1855.89 2151.32C1848.21 2153.03 1840.21 2155.37 1831.89 2158.36C1831.03 2158.57 1830.18 2158.79 1829.33 2159C1828.69 2159 1828.05 2159 1827.41 2159C1823.35 2159 1819.83 2157.61 1816.85 2154.84C1814.07 2151.85 1812.79 2148.23 1813.01 2143.96L1820.37 2052.12C1820.79 2046.15 1823.14 2041.13 1827.41 2037.08C1831.67 2033.03 1836.79 2031 1842.77 2031H1941.97C1945.81 2031 1949.11 2032.39 1951.89 2035.16C1954.66 2037.93 1956.05 2041.24 1956.05 2045.08C1956.05 2048.92 1954.66 2052.23 1951.89 2055C1949.11 2057.56 1945.81 2058.84 1941.97 2058.84H1851.09Z" fill="white"/>
</g>
<rect width="800" height="800" transform="translate(2286 1746)" fill="white"/>
<g filter="url(#filter8_dd_422_5039)">
<path d="M2690.68 2120.6C2706.68 2119.75 2720.76 2122.52 2732.92 2128.92C2745.29 2135.11 2754.89 2144.07 2761.72 2155.8C2768.76 2167.53 2772.28 2181.29 2772.28 2197.08C2772.28 2210.52 2768.65 2222.79 2761.4 2233.88C2754.14 2244.97 2744.44 2253.83 2732.28 2260.44C2720.12 2267.05 2706.57 2270.36 2691.64 2270.36C2663.05 2270.36 2641.08 2260.97 2625.72 2242.2C2610.57 2223.43 2603 2196.44 2603 2161.24C2603 2119 2611.1 2086.15 2627.32 2062.68C2643.53 2039.21 2666.46 2027.48 2696.12 2027.48C2709.98 2027.48 2721.72 2029.83 2731.32 2034.52C2741.13 2039 2748.49 2044.76 2753.4 2051.8C2758.52 2058.63 2761.08 2065.45 2761.08 2072.28C2761.08 2078.89 2758.94 2084.33 2754.68 2088.6C2750.62 2092.87 2745.72 2095 2739.96 2095C2734.2 2095 2729.5 2092.97 2725.88 2088.92C2722.46 2084.65 2720.76 2080.07 2720.76 2075.16C2720.76 2071.75 2721.61 2068.55 2723.32 2065.56C2724.38 2063.85 2724.28 2062.47 2723 2061.4C2717.66 2056.92 2708.92 2054.68 2696.76 2054.68C2685.24 2054.68 2674.36 2058.09 2664.12 2064.92C2654.09 2071.75 2645.88 2081.99 2639.48 2095.64C2633.29 2109.29 2630.09 2126.57 2629.88 2147.48C2629.88 2148.76 2630.41 2149.4 2631.48 2149.4C2632.54 2149.4 2633.93 2148.55 2635.64 2146.84C2644.17 2137.67 2653.45 2131.05 2663.48 2127C2673.72 2122.95 2682.78 2120.81 2690.68 2120.6ZM2691.64 2243.48C2703.16 2243.48 2712.86 2241.24 2720.76 2236.76C2728.65 2232.07 2734.52 2226.2 2738.36 2219.16C2742.41 2211.91 2744.44 2204.55 2744.44 2197.08C2744.44 2183.21 2741.77 2172.65 2736.44 2165.4C2731.1 2157.93 2724.49 2152.81 2716.6 2150.04C2708.92 2147.27 2701.34 2145.88 2693.88 2145.88C2683.42 2145.88 2673.72 2148.55 2664.76 2153.88C2656.01 2159 2648.97 2165.83 2643.64 2174.36C2638.3 2182.89 2635.64 2192.17 2635.64 2202.2C2635.64 2204.12 2635.85 2205.51 2636.28 2206.36C2640.54 2218.95 2647.05 2228.33 2655.8 2234.52C2664.76 2240.49 2676.7 2243.48 2691.64 2243.48Z" fill="black"/>
</g>
<rect width="800" height="800" transform="translate(3086 1746)" fill="black"/>
<rect width="800" height="800" transform="translate(3886 1746)" fill="white"/>
<rect width="800" height="800" transform="translate(4686 1746)" fill="black"/>
<rect width="800" height="800" transform="translate(5486 1746)" fill="white"/>
<mask id="path-14-outside-3_422_5039" maskUnits="userSpaceOnUse" x="686" y="2562" width="5600" height="816" fill="black">
<rect fill="white" x="686" y="2562" width="5600" height="816"/>
<path d="M686 2562H6286V3362H686V2562Z"/>
</mask>
<path d="M6286 3346H686V3378H6286V3346Z" fill="#888888" mask="url(#path-14-outside-3_422_5039)"/>
<g filter="url(#filter9_ii_422_5039)">
<g filter="url(#filter10_ii_422_5039)">
<path d="M1069.02 2736.32C1076.84 2723.73 1095.16 2723.73 1102.98 2736.32L1166.47 2838.43C1169.22 2842.85 1173.6 2846.03 1178.66 2847.28L1295.39 2876.11C1309.78 2879.66 1315.44 2897.08 1305.89 2908.41L1228.39 3000.35C1225.03 3004.33 1223.36 3009.47 1223.74 3014.68L1232.39 3134.6C1233.46 3149.38 1218.64 3160.15 1204.91 3154.56L1093.53 3109.27C1088.7 3107.31 1083.3 3107.31 1078.47 3109.27L967.088 3154.56C953.359 3160.15 938.539 3149.38 939.606 3134.6L948.263 3014.68C948.638 3009.47 946.967 3004.33 943.607 3000.35L866.115 2908.41C856.563 2897.08 862.223 2879.66 876.612 2876.11L993.34 2847.28C998.402 2846.03 1002.78 2842.85 1005.53 2838.43L1069.02 2736.32Z" fill="#FFCC00"/>
</g>
</g>
<rect width="800" height="800" transform="translate(1486 2562)" fill="black"/>
<g filter="url(#filter11_dd_422_5039)">
<path d="M1933.34 3057.88C1937.6 3057.45 1941.23 3058.73 1944.22 3061.72C1947.2 3064.49 1948.7 3068.01 1948.7 3072.28C1948.7 3076.55 1947.2 3080.07 1944.22 3082.84C1941.23 3085.61 1937.6 3086.89 1933.34 3086.68C1926.3 3086.04 1918.94 3085.51 1911.26 3085.08C1903.58 3084.65 1896 3084.44 1888.54 3084.44C1881.07 3084.44 1873.71 3084.65 1866.46 3085.08C1859.2 3085.51 1852.48 3086.04 1846.3 3086.68C1842.03 3086.89 1838.3 3085.61 1835.1 3082.84C1832.11 3080.07 1830.62 3076.55 1830.62 3072.28C1830.62 3068.01 1832.11 3064.49 1835.1 3061.72C1838.3 3058.73 1842.03 3057.45 1846.3 3057.88C1855.26 3058.73 1864.22 3059.37 1873.18 3059.8C1875.1 3059.8 1876.06 3058.84 1876.06 3056.92V2887.64C1876.06 2884.87 1874.88 2884.12 1872.54 2885.4L1850.46 2895.96C1847.9 2897.03 1845.66 2897.56 1843.74 2897.56C1837.98 2897.56 1833.71 2894.89 1830.94 2889.56C1830.08 2887.85 1829.66 2885.72 1829.66 2883.16C1829.66 2880.39 1830.3 2877.83 1831.58 2875.48C1833.07 2873.13 1835.1 2871.43 1837.66 2870.36L1884.7 2847.64C1886.83 2846.57 1888.96 2846.04 1891.1 2846.04C1894.72 2846.04 1897.92 2847.32 1900.7 2849.88C1903.47 2852.44 1904.86 2855.85 1904.86 2860.12V3056.92C1904.86 3058.84 1905.92 3059.8 1908.06 3059.8C1917.02 3059.37 1925.44 3058.73 1933.34 3057.88Z" fill="white"/>
</g>
<rect width="800" height="800" transform="translate(2286 2562)" fill="white"/>
<g filter="url(#filter12_dd_422_5039)">
<path d="M2608.67 3101.72C2602.27 3101.72 2596.72 3099.37 2592.03 3094.68C2587.55 3090.2 2585.31 3084.76 2585.31 3078.36C2585.31 3071.96 2587.55 3066.52 2592.03 3062.04C2596.72 3057.35 2602.27 3055 2608.67 3055C2615.07 3055 2620.51 3057.35 2624.99 3062.04C2629.68 3066.52 2632.03 3071.96 2632.03 3078.36C2632.03 3084.76 2629.68 3090.2 2624.99 3094.68C2620.51 3099.37 2615.07 3101.72 2608.67 3101.72ZM2678.36 3101.72C2671.96 3101.72 2666.41 3099.37 2661.72 3094.68C2657.24 3090.2 2655 3084.76 2655 3078.36C2655 3071.96 2657.24 3066.52 2661.72 3062.04C2666.41 3057.35 2671.96 3055 2678.36 3055C2684.76 3055 2690.2 3057.35 2694.68 3062.04C2699.37 3066.52 2701.72 3071.96 2701.72 3078.36C2701.72 3084.76 2699.37 3090.2 2694.68 3094.68C2690.2 3099.37 2684.76 3101.72 2678.36 3101.72ZM2748.04 3101.72C2741.64 3101.72 2736.1 3099.37 2731.4 3094.68C2726.92 3090.2 2724.68 3084.76 2724.68 3078.36C2724.68 3071.96 2726.92 3066.52 2731.4 3062.04C2736.1 3057.35 2741.64 3055 2748.04 3055C2754.44 3055 2759.88 3057.35 2764.36 3062.04C2769.06 3066.52 2771.4 3071.96 2771.4 3078.36C2771.4 3084.76 2769.06 3090.2 2764.36 3094.68C2759.88 3099.37 2754.44 3101.72 2748.04 3101.72Z" fill="black"/>
</g>
<rect width="800" height="800" transform="translate(3086 2562)" fill="black"/>
<rect width="800" height="800" transform="translate(3886 2562)" fill="white"/>
<rect width="800" height="800" transform="translate(4686 2562)" fill="black"/>
<rect width="800" height="800" transform="translate(5486 2562)" fill="white"/>
<mask id="path-19-outside-4_422_5039" maskUnits="userSpaceOnUse" x="686" y="3378" width="5600" height="816" fill="black">
<rect fill="white" x="686" y="3378" width="5600" height="816"/>
<path d="M686 3378H6286V4178H686V3378Z"/>
</mask>
<path d="M6286 4162H686V4194H6286V4162Z" fill="#888888" mask="url(#path-19-outside-4_422_5039)"/>
<g filter="url(#filter13_ii_422_5039)">
<g filter="url(#filter14_ii_422_5039)">
<path d="M1069.02 3552.32C1076.84 3539.73 1095.16 3539.73 1102.98 3552.32L1166.47 3654.43C1169.22 3658.85 1173.6 3662.03 1178.66 3663.28L1295.39 3692.11C1309.78 3695.66 1315.44 3713.08 1305.89 3724.41L1228.39 3816.35C1225.03 3820.33 1223.36 3825.47 1223.74 3830.68L1232.39 3950.6C1233.46 3965.38 1218.64 3976.15 1204.91 3970.56L1093.53 3925.27C1088.7 3923.31 1083.3 3923.31 1078.47 3925.27L967.088 3970.56C953.359 3976.15 938.539 3965.38 939.606 3950.6L948.263 3830.68C948.638 3825.47 946.967 3820.33 943.607 3816.35L866.115 3724.41C856.563 3713.08 862.223 3695.66 876.612 3692.11L993.34 3663.28C998.402 3662.03 1002.78 3658.85 1005.53 3654.43L1069.02 3552.32Z" fill="#339933"/>
</g>
</g>
<rect width="800" height="800" transform="translate(1486 3378)" fill="black"/>
<rect width="800" height="800" transform="translate(2286 3378)" fill="white"/>
<rect width="800" height="800" transform="translate(3086 3378)" fill="black"/>
<rect width="800" height="800" transform="translate(3886 3378)" fill="white"/>
<rect width="800" height="800" transform="translate(4686 3378)" fill="black"/>
<rect width="800" height="800" transform="translate(5486 3378)" fill="white"/>
<mask id="path-22-outside-5_422_5039" maskUnits="userSpaceOnUse" x="686" y="4194" width="5600" height="816" fill="black">
<rect fill="white" x="686" y="4194" width="5600" height="816"/>
<path d="M686 4194H6286V4994H686V4194Z"/>
</mask>
<path d="M6286 4978H686V5010H6286V4978Z" fill="#888888" mask="url(#path-22-outside-5_422_5039)"/>
<g filter="url(#filter15_ii_422_5039)">
<path d="M1069.02 4368.32C1076.84 4355.73 1095.16 4355.73 1102.98 4368.32L1166.47 4470.43C1169.22 4474.85 1173.6 4478.03 1178.66 4479.28L1295.39 4508.11C1309.78 4511.66 1315.44 4529.08 1305.89 4540.41L1228.39 4632.35C1225.03 4636.33 1223.36 4641.47 1223.74 4646.68L1232.39 4766.6C1233.46 4781.38 1218.64 4792.15 1204.91 4786.56L1093.53 4741.27C1088.7 4739.31 1083.3 4739.31 1078.47 4741.27L967.088 4786.56C953.359 4792.15 938.539 4781.38 939.606 4766.6L948.263 4646.68C948.638 4641.47 946.967 4636.33 943.607 4632.35L866.115 4540.41C856.563 4529.08 862.223 4511.66 876.612 4508.11L993.34 4479.28C998.402 4478.03 1002.78 4474.85 1005.53 4470.43L1069.02 4368.32Z" stroke="#880000" stroke-width="73.54"/>
</g>
<rect width="800" height="800" transform="translate(1486 4194)" fill="black"/>
<rect width="800" height="800" transform="translate(2286 4194)" fill="white"/>
<rect width="800" height="800" transform="translate(3086 4194)" fill="black"/>
<rect width="800" height="800" transform="translate(3886 4194)" fill="white"/>
<rect width="800" height="800" transform="translate(4686 4194)" fill="black"/>
<rect width="800" height="800" transform="translate(5486 4194)" fill="white"/>
<mask id="path-25-outside-6_422_5039" maskUnits="userSpaceOnUse" x="686" y="5010" width="5600" height="816" fill="black">
<rect fill="white" x="686" y="5010" width="5600" height="816"/>
<path d="M686 5010H6286V5810H686V5010Z"/>
</mask>
<path d="M6286 5794H686V5826H6286V5794Z" fill="#888888" mask="url(#path-25-outside-6_422_5039)"/>
<g filter="url(#filter16_ii_422_5039)">
<path d="M1069.02 5184.32C1076.84 5171.73 1095.16 5171.73 1102.98 5184.32L1166.47 5286.43C1169.22 5290.85 1173.6 5294.03 1178.66 5295.28L1295.39 5324.11C1309.78 5327.66 1315.44 5345.08 1305.89 5356.41L1228.39 5448.35C1225.03 5452.33 1223.36 5457.47 1223.74 5462.68L1232.39 5582.6C1233.46 5597.38 1218.64 5608.15 1204.91 5602.56L1093.53 5557.27C1088.7 5555.31 1083.3 5555.31 1078.47 5557.27L967.088 5602.56C953.359 5608.15 938.539 5597.38 939.606 5582.6L948.263 5462.68C948.638 5457.47 946.967 5452.33 943.607 5448.35L866.115 5356.41C856.563 5345.08 862.223 5327.66 876.612 5324.11L993.34 5295.28C998.402 5294.03 1002.78 5290.85 1005.53 5286.43L1069.02 5184.32Z" stroke="#FFCC00" stroke-width="73.54"/>
</g>
<rect width="800" height="800" transform="translate(1486 5010)" fill="black"/>
<rect width="800" height="800" transform="translate(2286 5010)" fill="white"/>
<rect width="800" height="800" transform="translate(3086 5010)" fill="black"/>
<rect width="800" height="800" transform="translate(3886 5010)" fill="white"/>
<rect width="800" height="800" transform="translate(4686 5010)" fill="black"/>
<rect width="800" height="800" transform="translate(5486 5010)" fill="white"/>
<mask id="path-28-outside-7_422_5039" maskUnits="userSpaceOnUse" x="686" y="5826" width="5600" height="816" fill="black">
<rect fill="white" x="686" y="5826" width="5600" height="816"/>
<path d="M686 5826H6286V6626H686V5826Z"/>
</mask>
<path d="M6286 6610H686V6642H6286V6610Z" fill="#888888" mask="url(#path-28-outside-7_422_5039)"/>
<g filter="url(#filter17_ii_422_5039)">
<path d="M1069.02 6000.32C1076.84 5987.73 1095.16 5987.73 1102.98 6000.32L1166.47 6102.43C1169.22 6106.85 1173.6 6110.03 1178.66 6111.28L1295.39 6140.11C1309.78 6143.66 1315.44 6161.08 1305.89 6172.41L1228.39 6264.35C1225.03 6268.33 1223.36 6273.47 1223.74 6278.68L1232.39 6398.6C1233.46 6413.38 1218.64 6424.15 1204.91 6418.56L1093.53 6373.27C1088.7 6371.31 1083.3 6371.31 1078.47 6373.27L967.088 6418.56C953.359 6424.15 938.539 6413.38 939.606 6398.6L948.263 6278.68C948.638 6273.47 946.967 6268.33 943.607 6264.35L866.115 6172.41C856.563 6161.08 862.223 6143.66 876.612 6140.11L993.34 6111.28C998.402 6110.03 1002.78 6106.85 1005.53 6102.43L1069.02 6000.32Z" stroke="#339933" stroke-width="73.54"/>
</g>
<rect width="800" height="800" transform="translate(1486 5826)" fill="black"/>
<rect width="800" height="800" transform="translate(2286 5826)" fill="white"/>
<rect width="800" height="800" transform="translate(3086 5826)" fill="black"/>
<rect width="800" height="800" transform="translate(3886 5826)" fill="white"/>
<rect width="800" height="800" transform="translate(4686 5826)" fill="black"/>
<rect width="800" height="800" transform="translate(5486 5826)" fill="white"/>
<mask id="path-31-inside-8_422_5039" fill="white">
<path d="M1486 6642H3086V7442H1486V6642Z"/>
</mask>
<path d="M1502 7442V6642H1470V7442H1502Z" fill="#888888" mask="url(#path-31-inside-8_422_5039)"/>
<g filter="url(#filter18_ii_422_5039)">
<path d="M2286 6770.11L2620.38 7349.26H1951.62L2286 6770.11Z" stroke="#003366" stroke-width="73.5439" stroke-linejoin="round"/>
<path d="M2182.14 7216.23L2285.64 7036.97L2389.14 7216.23H2182.14Z" stroke="#003366" stroke-width="73.5439" stroke-linejoin="round"/>
</g>
<mask id="path-35-inside-9_422_5039" fill="white">
<path d="M3086 6642H4686V7442H3086V6642Z"/>
</mask>
<path d="M3102 7442V6642H3070V7442H3102Z" fill="#888888" mask="url(#path-35-inside-9_422_5039)"/>
<g filter="url(#filter19_ii_422_5039)">
<circle cx="3886" cy="7042" r="275.789" stroke="#003366" stroke-width="73.5439" stroke-linejoin="round"/>
<circle cx="3886.11" cy="7042.11" r="101.123" stroke="#003366" stroke-width="73.5439" stroke-linejoin="round"/>
</g>
<mask id="path-39-inside-10_422_5039" fill="white">
<path d="M4686 6642H6286V7442H4686V6642Z"/>
</mask>
<path d="M4702 7442V6642H4670V7442H4702Z" fill="#888888" mask="url(#path-39-inside-10_422_5039)"/>
<g filter="url(#filter20_ii_422_5039)">
<rect x="5241.47" y="6797.47" width="489.067" height="489.067" stroke="#003366" stroke-width="73.5439" stroke-linejoin="round"/>
<rect x="5400.98" y="6956.98" width="170.991" height="170.991" stroke="#003366" stroke-width="73.5439" stroke-linejoin="round"/>
</g>
<defs>
<filter id="filter0_dd_422_5039" x="1790.75" y="1256.14" width="207.282" height="233.52" filterUnits="userSpaceOnUse" color-interpolation-filters="sRGB">
<feFlood flood-opacity="0" result="BackgroundImageFix"/>
<feColorMatrix in="SourceAlpha" type="matrix" values="0 0 0 0 0 0 0 0 0 0 0 0 0 0 0 0 0 0 127 0" result="hardAlpha"/>
<feOffset dx="11.0316" dy="7.35439"/>
<feGaussianBlur stdDeviation="13.9733"/>
<feComposite in2="hardAlpha" operator="out"/>
<feColorMatrix type="matrix" values="0 0 0 0 0.351397 0 0 0 0 0.264461 0 0 0 0 0.438333 0 0 0 1 0"/>
<feBlend mode="normal" in2="BackgroundImageFix" result="effect1_dropShadow_422_5039"/>
<feColorMatrix in="SourceAlpha" type="matrix" values="0 0 0 0 0 0 0 0 0 0 0 0 0 0 0 0 0 0 127 0" result="hardAlpha"/>
<feOffset dx="-7.35439" dy="-11.0316"/>
<feGaussianBlur stdDeviation="7.35439"/>
<feComposite in2="hardAlpha" operator="out"/>
<feColorMatrix type="matrix" values="0 0 0 0 0.948333 0 0 0 0 0.661052 0 0 0 0 0.499456 0 0 0 0.1 0"/>
<feBlend mode="normal" in2="effect1_dropShadow_422_5039" result="effect2_dropShadow_422_5039"/>
<feBlend mode="normal" in="SourceGraphic" in2="effect2_dropShadow_422_5039" result="shape"/>
</filter>
<filter id="filter1_dd_422_5039" x="2527" y="1255.18" width="334.961" height="234.801" filterUnits="userSpaceOnUse" color-interpolation-filters="sRGB">
<feFlood flood-opacity="0" result="BackgroundImageFix"/>
<feColorMatrix in="SourceAlpha" type="matrix" values="0 0 0 0 0 0 0 0 0 0 0 0 0 0 0 0 0 0 127 0" result="hardAlpha"/>
<feOffset dx="11.0316" dy="7.35439"/>
<feGaussianBlur stdDeviation="13.9733"/>
<feComposite in2="hardAlpha" operator="out"/>
<feColorMatrix type="matrix" values="0 0 0 0 0.351397 0 0 0 0 0.264461 0 0 0 0 0.438333 0 0 0 1 0"/>
<feBlend mode="normal" in2="BackgroundImageFix" result="effect1_dropShadow_422_5039"/>
<feColorMatrix in="SourceAlpha" type="matrix" values="0 0 0 0 0 0 0 0 0 0 0 0 0 0 0 0 0 0 127 0" result="hardAlpha"/>
<feOffset dx="-7.35439" dy="-11.0316"/>
<feGaussianBlur stdDeviation="7.35439"/>
<feComposite in2="hardAlpha" operator="out"/>
<feColorMatrix type="matrix" values="0 0 0 0 0.948333 0 0 0 0 0.661052 0 0 0 0 0.499456 0 0 0 0.1 0"/>
<feBlend mode="normal" in2="effect1_dropShadow_422_5039" result="effect2_dropShadow_422_5039"/>
<feBlend mode="normal" in="SourceGraphic" in2="effect2_dropShadow_422_5039" result="shape"/>
</filter>
<filter id="filter2_dd_422_5039" x="3390.75" y="1256.14" width="207.282" height="233.52" filterUnits="userSpaceOnUse" color-interpolation-filters="sRGB">
<feFlood flood-opacity="0" result="BackgroundImageFix"/>
<feColorMatrix in="SourceAlpha" type="matrix" values="0 0 0 0 0 0 0 0 0 0 0 0 0 0 0 0 0 0 127 0" result="hardAlpha"/>
<feOffset dx="11.0316" dy="7.35439"/>
<feGaussianBlur stdDeviation="13.9733"/>
<feComposite in2="hardAlpha" operator="out"/>
<feColorMatrix type="matrix" values="0 0 0 0 0.351397 0 0 0 0 0.264461 0 0 0 0 0.438333 0 0 0 1 0"/>
<feBlend mode="normal" in2="BackgroundImageFix" result="effect1_dropShadow_422_5039"/>
<feColorMatrix in="SourceAlpha" type="matrix" values="0 0 0 0 0 0 0 0 0 0 0 0 0 0 0 0 0 0 127 0" result="hardAlpha"/>
<feOffset dx="-7.35439" dy="-11.0316"/>
<feGaussianBlur stdDeviation="7.35439"/>
<feComposite in2="hardAlpha" operator="out"/>
<feColorMatrix type="matrix" values="0 0 0 0 0.948333 0 0 0 0 0.661052 0 0 0 0 0.499456 0 0 0 0.1 0"/>
<feBlend mode="normal" in2="effect1_dropShadow_422_5039" result="effect2_dropShadow_422_5039"/>
<feBlend mode="normal" in="SourceGraphic" in2="effect2_dropShadow_422_5039" result="shape"/>
</filter>
<filter id="filter3_dd_422_5039" x="4127" y="1255.18" width="334.961" height="234.801" filterUnits="userSpaceOnUse" color-interpolation-filters="sRGB">
<feFlood flood-opacity="0" result="BackgroundImageFix"/>
<feColorMatrix in="SourceAlpha" type="matrix" values="0 0 0 0 0 0 0 0 0 0 0 0 0 0 0 0 0 0 127 0" result="hardAlpha"/>
<feOffset dx="11.0316" dy="7.35439"/>
<feGaussianBlur stdDeviation="13.9733"/>
<feComposite in2="hardAlpha" operator="out"/>
<feColorMatrix type="matrix" values="0 0 0 0 0.351397 0 0 0 0 0.264461 0 0 0 0 0.438333 0 0 0 1 0"/>
<feBlend mode="normal" in2="BackgroundImageFix" result="effect1_dropShadow_422_5039"/>
<feColorMatrix in="SourceAlpha" type="matrix" values="0 0 0 0 0 0 0 0 0 0 0 0 0 0 0 0 0 0 127 0" result="hardAlpha"/>
<feOffset dx="-7.35439" dy="-11.0316"/>
<feGaussianBlur stdDeviation="7.35439"/>
<feComposite in2="hardAlpha" operator="out"/>
<feColorMatrix type="matrix" values="0 0 0 0 0.948333 0 0 0 0 0.661052 0 0 0 0 0.499456 0 0 0 0.1 0"/>
<feBlend mode="normal" in2="effect1_dropShadow_422_5039" result="effect2_dropShadow_422_5039"/>
<feBlend mode="normal" in="SourceGraphic" in2="effect2_dropShadow_422_5039" result="shape"/>
</filter>
<filter id="filter4_dd_422_5039" x="4990.75" y="1256.14" width="207.282" height="233.52" filterUnits="userSpaceOnUse" color-interpolation-filters="sRGB">
<feFlood flood-opacity="0" result="BackgroundImageFix"/>
<feColorMatrix in="SourceAlpha" type="matrix" values="0 0 0 0 0 0 0 0 0 0 0 0 0 0 0 0 0 0 127 0" result="hardAlpha"/>
<feOffset dx="11.0316" dy="7.35439"/>
<feGaussianBlur stdDeviation="13.9733"/>
<feComposite in2="hardAlpha" operator="out"/>
<feColorMatrix type="matrix" values="0 0 0 0 0.351397 0 0 0 0 0.264461 0 0 0 0 0.438333 0 0 0 1 0"/>
<feBlend mode="normal" in2="BackgroundImageFix" result="effect1_dropShadow_422_5039"/>
<feColorMatrix in="SourceAlpha" type="matrix" values="0 0 0 0 0 0 0 0 0 0 0 0 0 0 0 0 0 0 127 0" result="hardAlpha"/>
<feOffset dx="-7.35439" dy="-11.0316"/>
<feGaussianBlur stdDeviation="7.35439"/>
<feComposite in2="hardAlpha" operator="out"/>
<feColorMatrix type="matrix" values="0 0 0 0 0.948333 0 0 0 0 0.661052 0 0 0 0 0.499456 0 0 0 0.1 0"/>
<feBlend mode="normal" in2="effect1_dropShadow_422_5039" result="effect2_dropShadow_422_5039"/>
<feBlend mode="normal" in="SourceGraphic" in2="effect2_dropShadow_422_5039" result="shape"/>
</filter>
<filter id="filter5_dd_422_5039" x="5727" y="1255.18" width="334.961" height="234.801" filterUnits="userSpaceOnUse" color-interpolation-filters="sRGB">
<feFlood flood-opacity="0" result="BackgroundImageFix"/>
<feColorMatrix in="SourceAlpha" type="matrix" values="0 0 0 0 0 0 0 0 0 0 0 0 0 0 0 0 0 0 127 0" result="hardAlpha"/>
<feOffset dx="11.0316" dy="7.35439"/>
<feGaussianBlur stdDeviation="13.9733"/>
<feComposite in2="hardAlpha" operator="out"/>
<feColorMatrix type="matrix" values="0 0 0 0 0.351397 0 0 0 0 0.264461 0 0 0 0 0.438333 0 0 0 1 0"/>
<feBlend mode="normal" in2="BackgroundImageFix" result="effect1_dropShadow_422_5039"/>
<feColorMatrix in="SourceAlpha" type="matrix" values="0 0 0 0 0 0 0 0 0 0 0 0 0 0 0 0 0 0 127 0" result="hardAlpha"/>
<feOffset dx="-7.35439" dy="-11.0316"/>
<feGaussianBlur stdDeviation="7.35439"/>
<feComposite in2="hardAlpha" operator="out"/>
<feColorMatrix type="matrix" values="0 0 0 0 0.948333 0 0 0 0 0.661052 0 0 0 0 0.499456 0 0 0 0.1 0"/>
<feBlend mode="normal" in2="effect1_dropShadow_422_5039" result="effect2_dropShadow_422_5039"/>
<feBlend mode="normal" in="SourceGraphic" in2="effect2_dropShadow_422_5039" result="shape"/>
</filter>
<filter id="filter6_ii_422_5039" x="802.857" y="1859.18" width="569.964" height="569.964" filterUnits="userSpaceOnUse" color-interpolation-filters="sRGB">
<feFlood flood-opacity="0" result="BackgroundImageFix"/>
<feBlend mode="normal" in="SourceGraphic" in2="BackgroundImageFix" result="shape"/>
<feColorMatrix in="SourceAlpha" type="matrix" values="0 0 0 0 0 0 0 0 0 0 0 0 0 0 0 0 0 0 127 0" result="hardAlpha"/>
<feOffset dx="11.0316" dy="7.35439"/>
<feGaussianBlur stdDeviation="13.9733"/>
<feComposite in2="hardAlpha" operator="arithmetic" k2="-1" k3="1"/>
<feColorMatrix type="matrix" values="0 0 0 0 0.351397 0 0 0 0 0.264461 0 0 0 0 0.438333 0 0 0 1 0"/>
<feBlend mode="normal" in2="shape" result="effect1_innerShadow_422_5039"/>
<feColorMatrix in="SourceAlpha" type="matrix" values="0 0 0 0 0 0 0 0 0 0 0 0 0 0 0 0 0 0 127 0" result="hardAlpha"/>
<feOffset dx="-7.35439" dy="-11.0316"/>
<feGaussianBlur stdDeviation="7.35439"/>
<feComposite in2="hardAlpha" operator="arithmetic" k2="-1" k3="1"/>
<feColorMatrix type="matrix" values="0 0 0 0 0.948333 0 0 0 0 0.661052 0 0 0 0 0.499456 0 0 0 0.1 0"/>
<feBlend mode="normal" in2="effect1_innerShadow_422_5039" result="effect2_innerShadow_422_5039"/>
</filter>
<filter id="filter7_dd_422_5039" x="1779.74" y="2005.26" width="231.602" height="300.721" filterUnits="userSpaceOnUse" color-interpolation-filters="sRGB">
<feFlood flood-opacity="0" result="BackgroundImageFix"/>
<feColorMatrix in="SourceAlpha" type="matrix" values="0 0 0 0 0 0 0 0 0 0 0 0 0 0 0 0 0 0 127 0" result="hardAlpha"/>
<feOffset dx="11.0316" dy="7.35439"/>
<feGaussianBlur stdDeviation="13.9733"/>
<feComposite in2="hardAlpha" operator="out"/>
<feColorMatrix type="matrix" values="0 0 0 0 0.351397 0 0 0 0 0.264461 0 0 0 0 0.438333 0 0 0 1 0"/>
<feBlend mode="normal" in2="BackgroundImageFix" result="effect1_dropShadow_422_5039"/>
<feColorMatrix in="SourceAlpha" type="matrix" values="0 0 0 0 0 0 0 0 0 0 0 0 0 0 0 0 0 0 127 0" result="hardAlpha"/>
<feOffset dx="-7.35439" dy="-11.0316"/>
<feGaussianBlur stdDeviation="7.35439"/>
<feComposite in2="hardAlpha" operator="out"/>
<feColorMatrix type="matrix" values="0 0 0 0 0.948333 0 0 0 0 0.661052 0 0 0 0 0.499456 0 0 0 0.1 0"/>
<feBlend mode="normal" in2="effect1_dropShadow_422_5039" result="effect2_dropShadow_422_5039"/>
<feBlend mode="normal" in="SourceGraphic" in2="effect2_dropShadow_422_5039" result="shape"/>
</filter>
<filter id="filter8_dd_422_5039" x="2580.93" y="2001.74" width="230.321" height="303.92" filterUnits="userSpaceOnUse" color-interpolation-filters="sRGB">
<feFlood flood-opacity="0" result="BackgroundImageFix"/>
<feColorMatrix in="SourceAlpha" type="matrix" values="0 0 0 0 0 0 0 0 0 0 0 0 0 0 0 0 0 0 127 0" result="hardAlpha"/>
<feOffset dx="11.0316" dy="7.35439"/>
<feGaussianBlur stdDeviation="13.9733"/>
<feComposite in2="hardAlpha" operator="out"/>
<feColorMatrix type="matrix" values="0 0 0 0 0.351397 0 0 0 0 0.264461 0 0 0 0 0.438333 0 0 0 1 0"/>
<feBlend mode="normal" in2="BackgroundImageFix" result="effect1_dropShadow_422_5039"/>
<feColorMatrix in="SourceAlpha" type="matrix" values="0 0 0 0 0 0 0 0 0 0 0 0 0 0 0 0 0 0 127 0" result="hardAlpha"/>
<feOffset dx="-7.35439" dy="-11.0316"/>
<feGaussianBlur stdDeviation="7.35439"/>
<feComposite in2="hardAlpha" operator="out"/>
<feColorMatrix type="matrix" values="0 0 0 0 0.948333 0 0 0 0 0.661052 0 0 0 0 0.499456 0 0 0 0.1 0"/>
<feBlend mode="normal" in2="effect1_dropShadow_422_5039" result="effect2_dropShadow_422_5039"/>
<feBlend mode="normal" in="SourceGraphic" in2="effect2_dropShadow_422_5039" result="shape"/>
</filter>
<filter id="filter9_ii_422_5039" x="802.857" y="2675.18" width="569.964" height="569.964" filterUnits="userSpaceOnUse" color-interpolation-filters="sRGB">
<feFlood flood-opacity="0" result="BackgroundImageFix"/>
<feBlend mode="normal" in="SourceGraphic" in2="BackgroundImageFix" result="shape"/>
<feColorMatrix in="SourceAlpha" type="matrix" values="0 0 0 0 0 0 0 0 0 0 0 0 0 0 0 0 0 0 127 0" result="hardAlpha"/>
<feOffset dx="11.0316" dy="7.35439"/>
<feGaussianBlur stdDeviation="13.9733"/>
<feComposite in2="hardAlpha" operator="arithmetic" k2="-1" k3="1"/>
<feColorMatrix type="matrix" values="0 0 0 0 0.351397 0 0 0 0 0.264461 0 0 0 0 0.438333 0 0 0 1 0"/>
<feBlend mode="normal" in2="shape" result="effect1_innerShadow_422_5039"/>
<feColorMatrix in="SourceAlpha" type="matrix" values="0 0 0 0 0 0 0 0 0 0 0 0 0 0 0 0 0 0 127 0" result="hardAlpha"/>
<feOffset dx="-7.35439" dy="-11.0316"/>
<feGaussianBlur stdDeviation="7.35439"/>
<feComposite in2="hardAlpha" operator="arithmetic" k2="-1" k3="1"/>
<feColorMatrix type="matrix" values="0 0 0 0 0.948333 0 0 0 0 0.661052 0 0 0 0 0.499456 0 0 0 0.1 0"/>
<feBlend mode="normal" in2="effect1_innerShadow_422_5039" result="effect2_innerShadow_422_5039"/>
</filter>
<filter id="filter10_ii_422_5039" x="802.857" y="2675.18" width="569.964" height="569.964" filterUnits="userSpaceOnUse" color-interpolation-filters="sRGB">
<feFlood flood-opacity="0" result="BackgroundImageFix"/>
<feBlend mode="normal" in="SourceGraphic" in2="BackgroundImageFix" result="shape"/>
<feColorMatrix in="SourceAlpha" type="matrix" values="0 0 0 0 0 0 0 0 0 0 0 0 0 0 0 0 0 0 127 0" result="hardAlpha"/>
<feOffset dx="11.0316" dy="7.35439"/>
<feGaussianBlur stdDeviation="13.9733"/>
<feComposite in2="hardAlpha" operator="arithmetic" k2="-1" k3="1"/>
<feColorMatrix type="matrix" values="0 0 0 0 0.351397 0 0 0 0 0.264461 0 0 0 0 0.438333 0 0 0 1 0"/>
<feBlend mode="normal" in2="shape" result="effect1_innerShadow_422_5039"/>
<feColorMatrix in="SourceAlpha" type="matrix" values="0 0 0 0 0 0 0 0 0 0 0 0 0 0 0 0 0 0 127 0" result="hardAlpha"/>
<feOffset dx="-7.35439" dy="-11.0316"/>
<feGaussianBlur stdDeviation="7.35439"/>
<feComposite in2="hardAlpha" operator="arithmetic" k2="-1" k3="1"/>
<feColorMatrix type="matrix" values="0 0 0 0 0.948333 0 0 0 0 0.661052 0 0 0 0 0.499456 0 0 0 0.1 0"/>
<feBlend mode="normal" in2="effect1_innerShadow_422_5039" result="effect2_innerShadow_422_5039"/>
</filter>
<filter id="filter11_dd_422_5039" x="1807.6" y="2820.3" width="180.08" height="302.002" filterUnits="userSpaceOnUse" color-interpolation-filters="sRGB">
<feFlood flood-opacity="0" result="BackgroundImageFix"/>
<feColorMatrix in="SourceAlpha" type="matrix" values="0 0 0 0 0 0 0 0 0 0 0 0 0 0 0 0 0 0 127 0" result="hardAlpha"/>
<feOffset dx="11.0316" dy="7.35439"/>
<feGaussianBlur stdDeviation="13.9733"/>
<feComposite in2="hardAlpha" operator="out"/>
<feColorMatrix type="matrix" values="0 0 0 0 0.351397 0 0 0 0 0.264461 0 0 0 0 0.438333 0 0 0 1 0"/>
<feBlend mode="normal" in2="BackgroundImageFix" result="effect1_dropShadow_422_5039"/>
<feColorMatrix in="SourceAlpha" type="matrix" values="0 0 0 0 0 0 0 0 0 0 0 0 0 0 0 0 0 0 127 0" result="hardAlpha"/>
<feOffset dx="-7.35439" dy="-11.0316"/>
<feGaussianBlur stdDeviation="7.35439"/>
<feComposite in2="hardAlpha" operator="out"/>
<feColorMatrix type="matrix" values="0 0 0 0 0.948333 0 0 0 0 0.661052 0 0 0 0 0.499456 0 0 0 0.1 0"/>
<feBlend mode="normal" in2="effect1_dropShadow_422_5039" result="effect2_dropShadow_422_5039"/>
<feBlend mode="normal" in="SourceGraphic" in2="effect2_dropShadow_422_5039" result="shape"/>
</filter>
<filter id="filter12_dd_422_5039" x="2563.25" y="3029.26" width="247.137" height="107.762" filterUnits="userSpaceOnUse" color-interpolation-filters="sRGB">
<feFlood flood-opacity="0" result="BackgroundImageFix"/>
<feColorMatrix in="SourceAlpha" type="matrix" values="0 0 0 0 0 0 0 0 0 0 0 0 0 0 0 0 0 0 127 0" result="hardAlpha"/>
<feOffset dx="11.0316" dy="7.35439"/>
<feGaussianBlur stdDeviation="13.9733"/>
<feComposite in2="hardAlpha" operator="out"/>
<feColorMatrix type="matrix" values="0 0 0 0 0.351397 0 0 0 0 0.264461 0 0 0 0 0.438333 0 0 0 1 0"/>
<feBlend mode="normal" in2="BackgroundImageFix" result="effect1_dropShadow_422_5039"/>
<feColorMatrix in="SourceAlpha" type="matrix" values="0 0 0 0 0 0 0 0 0 0 0 0 0 0 0 0 0 0 127 0" result="hardAlpha"/>
<feOffset dx="-7.35439" dy="-11.0316"/>
<feGaussianBlur stdDeviation="7.35439"/>
<feComposite in2="hardAlpha" operator="out"/>
<feColorMatrix type="matrix" values="0 0 0 0 0.948333 0 0 0 0 0.661052 0 0 0 0 0.499456 0 0 0 0.1 0"/>
<feBlend mode="normal" in2="effect1_dropShadow_422_5039" result="effect2_dropShadow_422_5039"/>
<feBlend mode="normal" in="SourceGraphic" in2="effect2_dropShadow_422_5039" result="shape"/>
</filter>
<filter id="filter13_ii_422_5039" x="802.857" y="3491.18" width="569.964" height="569.964" filterUnits="userSpaceOnUse" color-interpolation-filters="sRGB">
<feFlood flood-opacity="0" result="BackgroundImageFix"/>
<feBlend mode="normal" in="SourceGraphic" in2="BackgroundImageFix" result="shape"/>
<feColorMatrix in="SourceAlpha" type="matrix" values="0 0 0 0 0 0 0 0 0 0 0 0 0 0 0 0 0 0 127 0" result="hardAlpha"/>
<feOffset dx="11.0316" dy="7.35439"/>
<feGaussianBlur stdDeviation="13.9733"/>
<feComposite in2="hardAlpha" operator="arithmetic" k2="-1" k3="1"/>
<feColorMatrix type="matrix" values="0 0 0 0 0.351397 0 0 0 0 0.264461 0 0 0 0 0.438333 0 0 0 1 0"/>
<feBlend mode="normal" in2="shape" result="effect1_innerShadow_422_5039"/>
<feColorMatrix in="SourceAlpha" type="matrix" values="0 0 0 0 0 0 0 0 0 0 0 0 0 0 0 0 0 0 127 0" result="hardAlpha"/>
<feOffset dx="-7.35439" dy="-11.0316"/>
<feGaussianBlur stdDeviation="7.35439"/>
<feComposite in2="hardAlpha" operator="arithmetic" k2="-1" k3="1"/>
<feColorMatrix type="matrix" values="0 0 0 0 0.948333 0 0 0 0 0.661052 0 0 0 0 0.499456 0 0 0 0.1 0"/>
<feBlend mode="normal" in2="effect1_innerShadow_422_5039" result="effect2_innerShadow_422_5039"/>
</filter>
<filter id="filter14_ii_422_5039" x="802.857" y="3491.18" width="569.964" height="569.964" filterUnits="userSpaceOnUse" color-interpolation-filters="sRGB">
<feFlood flood-opacity="0" result="BackgroundImageFix"/>
<feBlend mode="normal" in="SourceGraphic" in2="BackgroundImageFix" result="shape"/>
<feColorMatrix in="SourceAlpha" type="matrix" values="0 0 0 0 0 0 0 0 0 0 0 0 0 0 0 0 0 0 127 0" result="hardAlpha"/>
<feOffset dx="11.0316" dy="7.35439"/>
<feGaussianBlur stdDeviation="13.9733"/>
<feComposite in2="hardAlpha" operator="arithmetic" k2="-1" k3="1"/>
<feColorMatrix type="matrix" values="0 0 0 0 0.351397 0 0 0 0 0.264461 0 0 0 0 0.438333 0 0 0 1 0"/>
<feBlend mode="normal" in2="shape" result="effect1_innerShadow_422_5039"/>
<feColorMatrix in="SourceAlpha" type="matrix" values="0 0 0 0 0 0 0 0 0 0 0 0 0 0 0 0 0 0 127 0" result="hardAlpha"/>
<feOffset dx="-7.35439" dy="-11.0316"/>
<feGaussianBlur stdDeviation="7.35439"/>
<feComposite in2="hardAlpha" operator="arithmetic" k2="-1" k3="1"/>
<feColorMatrix type="matrix" values="0 0 0 0 0.948333 0 0 0 0 0.661052 0 0 0 0 0.499456 0 0 0 0.1 0"/>
<feBlend mode="normal" in2="effect1_innerShadow_422_5039" result="effect2_innerShadow_422_5039"/>
</filter>
<filter id="filter15_ii_422_5039" x="802.857" y="4307.18" width="569.964" height="569.964" filterUnits="userSpaceOnUse" color-interpolation-filters="sRGB">
<feFlood flood-opacity="0" result="BackgroundImageFix"/>
<feBlend mode="normal" in="SourceGraphic" in2="BackgroundImageFix" result="shape"/>
<feColorMatrix in="SourceAlpha" type="matrix" values="0 0 0 0 0 0 0 0 0 0 0 0 0 0 0 0 0 0 127 0" result="hardAlpha"/>
<feOffset dx="11.0316" dy="7.35439"/>
<feGaussianBlur stdDeviation="13.9733"/>
<feComposite in2="hardAlpha" operator="arithmetic" k2="-1" k3="1"/>
<feColorMatrix type="matrix" values="0 0 0 0 0.351397 0 0 0 0 0.264461 0 0 0 0 0.438333 0 0 0 1 0"/>
<feBlend mode="normal" in2="shape" result="effect1_innerShadow_422_5039"/>
<feColorMatrix in="SourceAlpha" type="matrix" values="0 0 0 0 0 0 0 0 0 0 0 0 0 0 0 0 0 0 127 0" result="hardAlpha"/>
<feOffset dx="-7.35439" dy="-11.0316"/>
<feGaussianBlur stdDeviation="7.35439"/>
<feComposite in2="hardAlpha" operator="arithmetic" k2="-1" k3="1"/>
<feColorMatrix type="matrix" values="0 0 0 0 0.948333 0 0 0 0 0.661052 0 0 0 0 0.499456 0 0 0 0.1 0"/>
<feBlend mode="normal" in2="effect1_innerShadow_422_5039" result="effect2_innerShadow_422_5039"/>
</filter>
<filter id="filter16_ii_422_5039" x="802.857" y="5123.18" width="569.964" height="569.964" filterUnits="userSpaceOnUse" color-interpolation-filters="sRGB">
<feFlood flood-opacity="0" result="BackgroundImageFix"/>
<feBlend mode="normal" in="SourceGraphic" in2="BackgroundImageFix" result="shape"/>
<feColorMatrix in="SourceAlpha" type="matrix" values="0 0 0 0 0 0 0 0 0 0 0 0 0 0 0 0 0 0 127 0" result="hardAlpha"/>
<feOffset dx="11.0316" dy="7.35439"/>
<feGaussianBlur stdDeviation="13.9733"/>
<feComposite in2="hardAlpha" operator="arithmetic" k2="-1" k3="1"/>
<feColorMatrix type="matrix" values="0 0 0 0 0.351397 0 0 0 0 0.264461 0 0 0 0 0.438333 0 0 0 1 0"/>
<feBlend mode="normal" in2="shape" result="effect1_innerShadow_422_5039"/>
<feColorMatrix in="SourceAlpha" type="matrix" values="0 0 0 0 0 0 0 0 0 0 0 0 0 0 0 0 0 0 127 0" result="hardAlpha"/>
<feOffset dx="-7.35439" dy="-11.0316"/>
<feGaussianBlur stdDeviation="7.35439"/>
<feComposite in2="hardAlpha" operator="arithmetic" k2="-1" k3="1"/>
<feColorMatrix type="matrix" values="0 0 0 0 0.948333 0 0 0 0 0.661052 0 0 0 0 0.499456 0 0 0 0.1 0"/>
<feBlend mode="normal" in2="effect1_innerShadow_422_5039" result="effect2_innerShadow_422_5039"/>
</filter>
<filter id="filter17_ii_422_5039" x="802.857" y="5939.18" width="569.964" height="569.964" filterUnits="userSpaceOnUse" color-interpolation-filters="sRGB">
<feFlood flood-opacity="0" result="BackgroundImageFix"/>
<feBlend mode="normal" in="SourceGraphic" in2="BackgroundImageFix" result="shape"/>
<feColorMatrix in="SourceAlpha" type="matrix" values="0 0 0 0 0 0 0 0 0 0 0 0 0 0 0 0 0 0 127 0" result="hardAlpha"/>
<feOffset dx="11.0316" dy="7.35439"/>
<feGaussianBlur stdDeviation="13.9733"/>
<feComposite in2="hardAlpha" operator="arithmetic" k2="-1" k3="1"/>
<feColorMatrix type="matrix" values="0 0 0 0 0.351397 0 0 0 0 0.264461 0 0 0 0 0.438333 0 0 0 1 0"/>
<feBlend mode="normal" in2="shape" result="effect1_innerShadow_422_5039"/>
<feColorMatrix in="SourceAlpha" type="matrix" values="0 0 0 0 0 0 0 0 0 0 0 0 0 0 0 0 0 0 127 0" result="hardAlpha"/>
<feOffset dx="-7.35439" dy="-11.0316"/>
<feGaussianBlur stdDeviation="7.35439"/>
<feComposite in2="hardAlpha" operator="arithmetic" k2="-1" k3="1"/>
<feColorMatrix type="matrix" values="0 0 0 0 0.948333 0 0 0 0 0.661052 0 0 0 0 0.499456 0 0 0 0.1 0"/>
<feBlend mode="normal" in2="effect1_innerShadow_422_5039" result="effect2_innerShadow_422_5039"/>
</filter>
<filter id="filter18_ii_422_5039" x="1907.5" y="6722.3" width="760.683" height="717.052" filterUnits="userSpaceOnUse" color-interpolation-filters="sRGB">
<feFlood flood-opacity="0" result="BackgroundImageFix"/>
<feBlend mode="normal" in="SourceGraphic" in2="BackgroundImageFix" result="shape"/>
<feColorMatrix in="SourceAlpha" type="matrix" values="0 0 0 0 0 0 0 0 0 0 0 0 0 0 0 0 0 0 127 0" result="hardAlpha"/>
<feOffset dx="11.0316" dy="7.35439"/>
<feGaussianBlur stdDeviation="13.9733"/>
<feComposite in2="hardAlpha" operator="arithmetic" k2="-1" k3="1"/>
<feColorMatrix type="matrix" values="0 0 0 0 0.351397 0 0 0 0 0.264461 0 0 0 0 0.438333 0 0 0 1 0"/>
<feBlend mode="normal" in2="shape" result="effect1_innerShadow_422_5039"/>
<feColorMatrix in="SourceAlpha" type="matrix" values="0 0 0 0 0 0 0 0 0 0 0 0 0 0 0 0 0 0 127 0" result="hardAlpha"/>
<feOffset dx="-7.35439" dy="-11.0316"/>
<feGaussianBlur stdDeviation="7.35439"/>
<feComposite in2="hardAlpha" operator="arithmetic" k2="-1" k3="1"/>
<feColorMatrix type="matrix" values="0 0 0 0 0.948333 0 0 0 0 0.661052 0 0 0 0 0.499456 0 0 0 0.1 0"/>
<feBlend mode="normal" in2="effect1_innerShadow_422_5039" result="effect2_innerShadow_422_5039"/>
</filter>
<filter id="filter19_ii_422_5039" x="3566.09" y="6718.41" width="643.509" height="643.509" filterUnits="userSpaceOnUse" color-interpolation-filters="sRGB">
<feFlood flood-opacity="0" result="BackgroundImageFix"/>
<feBlend mode="normal" in="SourceGraphic" in2="BackgroundImageFix" result="shape"/>
<feColorMatrix in="SourceAlpha" type="matrix" values="0 0 0 0 0 0 0 0 0 0 0 0 0 0 0 0 0 0 127 0" result="hardAlpha"/>
<feOffset dx="11.0316" dy="7.35439"/>
<feGaussianBlur stdDeviation="13.9733"/>
<feComposite in2="hardAlpha" operator="arithmetic" k2="-1" k3="1"/>
<feColorMatrix type="matrix" values="0 0 0 0 0.351397 0 0 0 0 0.264461 0 0 0 0 0.438333 0 0 0 1 0"/>
<feBlend mode="normal" in2="shape" result="effect1_innerShadow_422_5039"/>
<feColorMatrix in="SourceAlpha" type="matrix" values="0 0 0 0 0 0 0 0 0 0 0 0 0 0 0 0 0 0 127 0" result="hardAlpha"/>
<feOffset dx="-7.35439" dy="-11.0316"/>
<feGaussianBlur stdDeviation="7.35439"/>
<feComposite in2="hardAlpha" operator="arithmetic" k2="-1" k3="1"/>
<feColorMatrix type="matrix" values="0 0 0 0 0.948333 0 0 0 0 0.661052 0 0 0 0 0.499456 0 0 0 0.1 0"/>
<feBlend mode="normal" in2="effect1_innerShadow_422_5039" result="effect2_innerShadow_422_5039"/>
</filter>
<filter id="filter20_ii_422_5039" x="5197.34" y="6749.66" width="580.995" height="580.995" filterUnits="userSpaceOnUse" color-interpolation-filters="sRGB">
<feFlood flood-opacity="0" result="BackgroundImageFix"/>
<feBlend mode="normal" in="SourceGraphic" in2="BackgroundImageFix" result="shape"/>
<feColorMatrix in="SourceAlpha" type="matrix" values="0 0 0 0 0 0 0 0 0 0 0 0 0 0 0 0 0 0 127 0" result="hardAlpha"/>
<feOffset dx="11.0316" dy="7.35439"/>
<feGaussianBlur stdDeviation="13.9733"/>
<feComposite in2="hardAlpha" operator="arithmetic" k2="-1" k3="1"/>
<feColorMatrix type="matrix" values="0 0 0 0 0.351397 0 0 0 0 0.264461 0 0 0 0 0.438333 0 0 0 1 0"/>
<feBlend mode="normal" in2="shape" result="effect1_innerShadow_422_5039"/>
<feColorMatrix in="SourceAlpha" type="matrix" values="0 0 0 0 0 0 0 0 0 0 0 0 0 0 0 0 0 0 127 0" result="hardAlpha"/>
<feOffset dx="-7.35439" dy="-11.0316"/>
<feGaussianBlur stdDeviation="7.35439"/>
<feComposite in2="hardAlpha" operator="arithmetic" k2="-1" k3="1"/>
<feColorMatrix type="matrix" values="0 0 0 0 0.948333 0 0 0 0 0.661052 0 0 0 0 0.499456 0 0 0 0.1 0"/>
<feBlend mode="normal" in2="effect1_innerShadow_422_5039" result="effect2_innerShadow_422_5039"/>
</filter>
</defs>
</svg>
