<svg width="945" height="945" viewBox="0 0 945 945" fill="none" xmlns="http://www.w3.org/2000/svg">
<g clip-path="url(#clip0_39_2741)">
<rect width="944.88" height="944.88" rx="45" fill="url(#paint0_radial_39_2741)"/>
<g filter="url(#filter0_if_39_2741)">
<circle cx="472.5" cy="472.5" r="472.5" fill="white"/>
<circle cx="472.5" cy="472.5" r="470" stroke="#D9D9D9" stroke-opacity="0.5" stroke-width="5"/>
</g>
<g clip-path="url(#clip1_39_2741)">
<g filter="url(#filter1_if_39_2741)">
<circle cx="472.5" cy="472.5" r="470" stroke="#D9D9D9" stroke-opacity="0.5" stroke-width="5"/>
</g>
<g filter="url(#filter2_ii_39_2741)">
<path d="M475.789 89.6841L810.166 668.842H141.412L475.789 89.6841Z" fill="#880000"/>
</g>
<g filter="url(#filter3_dd_39_2741)">
<path d="M519.338 568.481C523.604 568.054 527.231 569.334 530.218 572.321C533.204 575.094 534.698 578.614 534.698 582.881C534.698 587.147 533.204 590.667 530.218 593.441C527.231 596.214 523.604 597.494 519.338 597.281C512.298 596.641 504.938 596.107 497.258 595.681C489.578 595.254 482.004 595.041 474.538 595.041C467.071 595.041 459.711 595.254 452.458 595.681C445.204 596.107 438.484 596.641 432.298 597.281C428.031 597.494 424.298 596.214 421.098 593.441C418.111 590.667 416.618 587.147 416.618 582.881C416.618 578.614 418.111 575.094 421.098 572.321C424.298 569.334 428.031 568.054 432.298 568.481C441.258 569.334 450.218 569.974 459.178 570.401C461.098 570.401 462.058 569.441 462.058 567.521V398.241C462.058 395.467 460.884 394.721 458.538 396.001L436.458 406.561C433.898 407.627 431.658 408.161 429.738 408.161C423.978 408.161 419.711 405.494 416.938 400.161C416.084 398.454 415.658 396.321 415.658 393.761C415.658 390.987 416.298 388.427 417.578 386.081C419.071 383.734 421.098 382.027 423.658 380.961L470.698 358.241C472.831 357.174 474.964 356.641 477.098 356.641C480.724 356.641 483.924 357.921 486.698 360.481C489.471 363.041 490.858 366.454 490.858 370.721V567.521C490.858 569.441 491.924 570.401 494.058 570.401C503.018 569.974 511.444 569.334 519.338 568.481Z" fill="white"/>
</g>
</g>
</g>
<defs>
<filter id="filter0_if_39_2741" x="-5" y="-5" width="955" height="955" filterUnits="userSpaceOnUse" color-interpolation-filters="sRGB">
<feFlood flood-opacity="0" result="BackgroundImageFix"/>
<feBlend mode="normal" in="SourceGraphic" in2="BackgroundImageFix" result="shape"/>
<feColorMatrix in="SourceAlpha" type="matrix" values="0 0 0 0 0 0 0 0 0 0 0 0 0 0 0 0 0 0 127 0" result="hardAlpha"/>
<feOffset dy="4"/>
<feGaussianBlur stdDeviation="2"/>
<feComposite in2="hardAlpha" operator="arithmetic" k2="-1" k3="1"/>
<feColorMatrix type="matrix" values="0 0 0 0 1 0 0 0 0 1 0 0 0 0 1 0 0 0 0.5 0"/>
<feBlend mode="normal" in2="shape" result="effect1_innerShadow_39_2741"/>
<feGaussianBlur stdDeviation="2.5" result="effect2_foregroundBlur_39_2741"/>
</filter>
<filter id="filter1_if_39_2741" x="-5" y="-5" width="955" height="955" filterUnits="userSpaceOnUse" color-interpolation-filters="sRGB">
<feFlood flood-opacity="0" result="BackgroundImageFix"/>
<feBlend mode="normal" in="SourceGraphic" in2="BackgroundImageFix" result="shape"/>
<feColorMatrix in="SourceAlpha" type="matrix" values="0 0 0 0 0 0 0 0 0 0 0 0 0 0 0 0 0 0 127 0" result="hardAlpha"/>
<feOffset dy="4"/>
<feGaussianBlur stdDeviation="2"/>
<feComposite in2="hardAlpha" operator="arithmetic" k2="-1" k3="1"/>
<feColorMatrix type="matrix" values="0 0 0 0 1 0 0 0 0 1 0 0 0 0 1 0 0 0 0.5 0"/>
<feBlend mode="normal" in2="shape" result="effect1_innerShadow_39_2741"/>
<feGaussianBlur stdDeviation="2.5" result="effect2_foregroundBlur_39_2741"/>
</filter>
<filter id="filter2_ii_39_2741" x="134.056" y="78.6525" width="687.14" height="680.281" filterUnits="userSpaceOnUse" color-interpolation-filters="sRGB">
<feFlood flood-opacity="0" result="BackgroundImageFix"/>
<feBlend mode="normal" in="SourceGraphic" in2="BackgroundImageFix" result="shape"/>
<feColorMatrix in="SourceAlpha" type="matrix" values="0 0 0 0 0 0 0 0 0 0 0 0 0 0 0 0 0 0 127 0" result="hardAlpha"/>
<feOffset dx="11.0316" dy="7.35439"/>
<feGaussianBlur stdDeviation="13.9733"/>
<feComposite in2="hardAlpha" operator="arithmetic" k2="-1" k3="1"/>
<feColorMatrix type="matrix" values="0 0 0 0 0.351397 0 0 0 0 0.264461 0 0 0 0 0.438333 0 0 0 1 0"/>
<feBlend mode="normal" in2="shape" result="effect1_innerShadow_39_2741"/>
<feColorMatrix in="SourceAlpha" type="matrix" values="0 0 0 0 0 0 0 0 0 0 0 0 0 0 0 0 0 0 127 0" result="hardAlpha"/>
<feOffset dx="-7.35439" dy="-11.0316"/>
<feGaussianBlur stdDeviation="7.35439"/>
<feComposite in2="hardAlpha" operator="arithmetic" k2="-1" k3="1"/>
<feColorMatrix type="matrix" values="0 0 0 0 0.948333 0 0 0 0 0.661052 0 0 0 0 0.499456 0 0 0 0.1 0"/>
<feBlend mode="normal" in2="effect1_innerShadow_39_2741" result="effect2_innerShadow_39_2741"/>
</filter>
<filter id="filter3_dd_39_2741" x="393.593" y="330.9" width="180.084" height="302.001" filterUnits="userSpaceOnUse" color-interpolation-filters="sRGB">
<feFlood flood-opacity="0" result="BackgroundImageFix"/>
<feColorMatrix in="SourceAlpha" type="matrix" values="0 0 0 0 0 0 0 0 0 0 0 0 0 0 0 0 0 0 127 0" result="hardAlpha"/>
<feOffset dx="11.0316" dy="7.35439"/>
<feGaussianBlur stdDeviation="13.9733"/>
<feComposite in2="hardAlpha" operator="out"/>
<feColorMatrix type="matrix" values="0 0 0 0 0.351397 0 0 0 0 0.264461 0 0 0 0 0.438333 0 0 0 1 0"/>
<feBlend mode="normal" in2="BackgroundImageFix" result="effect1_dropShadow_39_2741"/>
<feColorMatrix in="SourceAlpha" type="matrix" values="0 0 0 0 0 0 0 0 0 0 0 0 0 0 0 0 0 0 127 0" result="hardAlpha"/>
<feOffset dx="-7.35439" dy="-11.0316"/>
<feGaussianBlur stdDeviation="7.35439"/>
<feComposite in2="hardAlpha" operator="out"/>
<feColorMatrix type="matrix" values="0 0 0 0 0.948333 0 0 0 0 0.661052 0 0 0 0 0.499456 0 0 0 0.1 0"/>
<feBlend mode="normal" in2="effect1_dropShadow_39_2741" result="effect2_dropShadow_39_2741"/>
<feBlend mode="normal" in="SourceGraphic" in2="effect2_dropShadow_39_2741" result="shape"/>
</filter>
<radialGradient id="paint0_radial_39_2741" cx="0" cy="0" r="1" gradientUnits="userSpaceOnUse" gradientTransform="translate(472.44 472.44) rotate(45) scale(668.301)">
<stop offset="0.1" stop-color="white"/>
<stop offset="0.225" stop-color="white"/>
<stop offset="0.585" stop-color="#E3E2E1"/>
<stop offset="0.73" stop-color="#F2F2F1"/>
<stop offset="0.855" stop-color="white"/>
<stop offset="1" stop-color="#F1F0F0"/>
</radialGradient>
<clipPath id="clip0_39_2741">
<rect width="944.88" height="944.88" rx="45" fill="white"/>
</clipPath>
<clipPath id="clip1_39_2741">
<rect width="944.88" height="944.88" fill="white"/>
</clipPath>
</defs>
</svg>
