<svg width="945" height="945" viewBox="0 0 945 945" fill="none" xmlns="http://www.w3.org/2000/svg">
<g clip-path="url(#clip0_39_2725)">
<circle cx="472.5" cy="472.5" r="470" fill="url(#paint0_radial_39_2725)" stroke="#404040" stroke-width="5"/>
<g clip-path="url(#clip1_39_2725)">
<g filter="url(#filter0_f_39_2725)">
<circle cx="472.5" cy="472.5" r="470" stroke="#D9D9D9" stroke-opacity="0.5" stroke-width="5"/>
</g>
<g filter="url(#filter1_ii_39_2725)">
<circle cx="475.789" cy="475.789" r="275.789" fill="#FFCC00"/>
</g>
<g filter="url(#filter2_dd_39_2725)">
<path d="M462.478 582.001C458.211 582.214 454.478 580.934 451.278 578.161C448.291 575.387 446.798 571.867 446.798 567.601C446.798 563.334 448.291 559.814 451.278 557.041C454.478 554.054 458.211 552.774 462.478 553.201C465.891 553.627 469.518 554.054 473.358 554.481C477.198 554.694 480.931 554.907 484.558 555.121C486.478 555.121 487.438 554.161 487.438 552.241V513.841C487.438 511.921 486.478 510.961 484.558 510.961H394.638C388.451 510.961 384.078 507.974 381.518 502.001C380.878 500.081 380.558 497.947 380.558 495.601C380.558 491.974 381.518 488.774 383.438 486.001L476.558 349.361C480.611 342.961 486.371 339.761 493.838 339.761C499.384 339.761 504.184 341.894 508.238 346.161C512.291 350.427 514.318 355.227 514.318 360.561V482.161C514.318 484.081 515.278 485.041 517.198 485.041H549.198C552.824 485.041 555.918 486.321 558.478 488.881C561.038 491.227 562.318 494.214 562.318 497.841C562.318 501.467 561.038 504.561 558.478 507.121C555.918 509.681 552.824 510.961 549.198 510.961H517.198C515.278 510.961 514.318 511.921 514.318 513.841V552.241C514.318 554.161 515.278 555.121 517.198 555.121C520.824 554.907 524.558 554.694 528.398 554.481C532.238 554.054 535.864 553.627 539.278 553.201C543.544 552.774 547.171 554.054 550.158 557.041C553.358 559.814 554.958 563.334 554.958 567.601C554.958 571.867 553.358 575.387 550.158 578.161C547.171 580.934 543.544 582.214 539.278 582.001C532.664 581.361 526.158 580.827 519.758 580.401C513.358 579.974 507.064 579.761 500.878 579.761C494.691 579.761 488.398 579.974 481.998 580.401C475.811 580.827 469.304 581.361 462.478 582.001ZM487.438 386.481C487.438 385.201 487.011 384.347 486.158 383.921C485.518 383.494 484.771 383.921 483.918 385.201L418.318 481.521C417.891 482.374 417.677 482.907 417.677 483.121C417.677 484.401 418.531 485.041 420.238 485.041H484.558C486.478 485.041 487.438 484.081 487.438 482.161V386.481Z" fill="black"/>
</g>
</g>
</g>
<defs>
<filter id="filter0_f_39_2725" x="-12" y="-12" width="969" height="969" filterUnits="userSpaceOnUse" color-interpolation-filters="sRGB">
<feFlood flood-opacity="0" result="BackgroundImageFix"/>
<feBlend mode="normal" in="SourceGraphic" in2="BackgroundImageFix" result="shape"/>
<feGaussianBlur stdDeviation="6" result="effect1_foregroundBlur_39_2725"/>
</filter>
<filter id="filter1_ii_39_2725" x="192.646" y="188.968" width="569.964" height="569.965" filterUnits="userSpaceOnUse" color-interpolation-filters="sRGB">
<feFlood flood-opacity="0" result="BackgroundImageFix"/>
<feBlend mode="normal" in="SourceGraphic" in2="BackgroundImageFix" result="shape"/>
<feColorMatrix in="SourceAlpha" type="matrix" values="0 0 0 0 0 0 0 0 0 0 0 0 0 0 0 0 0 0 127 0" result="hardAlpha"/>
<feOffset dx="11.0316" dy="7.35439"/>
<feGaussianBlur stdDeviation="13.9733"/>
<feComposite in2="hardAlpha" operator="arithmetic" k2="-1" k3="1"/>
<feColorMatrix type="matrix" values="0 0 0 0 0.351397 0 0 0 0 0.264461 0 0 0 0 0.438333 0 0 0 1 0"/>
<feBlend mode="normal" in2="shape" result="effect1_innerShadow_39_2725"/>
<feColorMatrix in="SourceAlpha" type="matrix" values="0 0 0 0 0 0 0 0 0 0 0 0 0 0 0 0 0 0 127 0" result="hardAlpha"/>
<feOffset dx="-7.35439" dy="-11.0316"/>
<feGaussianBlur stdDeviation="7.35439"/>
<feComposite in2="hardAlpha" operator="arithmetic" k2="-1" k3="1"/>
<feColorMatrix type="matrix" values="0 0 0 0 0.948333 0 0 0 0 0.661052 0 0 0 0 0.499456 0 0 0 0.1 0"/>
<feBlend mode="normal" in2="effect1_innerShadow_39_2725" result="effect2_innerShadow_39_2725"/>
</filter>
<filter id="filter2_dd_39_2725" x="358.493" y="314.02" width="242.803" height="303.601" filterUnits="userSpaceOnUse" color-interpolation-filters="sRGB">
<feFlood flood-opacity="0" result="BackgroundImageFix"/>
<feColorMatrix in="SourceAlpha" type="matrix" values="0 0 0 0 0 0 0 0 0 0 0 0 0 0 0 0 0 0 127 0" result="hardAlpha"/>
<feOffset dx="11.0316" dy="7.35439"/>
<feGaussianBlur stdDeviation="13.9733"/>
<feComposite in2="hardAlpha" operator="out"/>
<feColorMatrix type="matrix" values="0 0 0 0 0.351397 0 0 0 0 0.264461 0 0 0 0 0.438333 0 0 0 1 0"/>
<feBlend mode="normal" in2="BackgroundImageFix" result="effect1_dropShadow_39_2725"/>
<feColorMatrix in="SourceAlpha" type="matrix" values="0 0 0 0 0 0 0 0 0 0 0 0 0 0 0 0 0 0 127 0" result="hardAlpha"/>
<feOffset dx="-7.35439" dy="-11.0316"/>
<feGaussianBlur stdDeviation="7.35439"/>
<feComposite in2="hardAlpha" operator="out"/>
<feColorMatrix type="matrix" values="0 0 0 0 0.948333 0 0 0 0 0.661052 0 0 0 0 0.499456 0 0 0 0.1 0"/>
<feBlend mode="normal" in2="effect1_dropShadow_39_2725" result="effect2_dropShadow_39_2725"/>
<feBlend mode="normal" in="SourceGraphic" in2="effect2_dropShadow_39_2725" result="shape"/>
</filter>
<radialGradient id="paint0_radial_39_2725" cx="0" cy="0" r="1" gradientUnits="userSpaceOnUse" gradientTransform="translate(472.5 472.5) rotate(45) scale(668.386)">
<stop offset="0.0187042" stop-color="#404040"/>
<stop offset="0.116022" stop-color="#313131"/>
<stop offset="0.214836" stop-color="#212121"/>
<stop offset="0.419889" stop-color="#191919"/>
<stop offset="0.592023" stop-color="#0F0F0F"/>
<stop offset="0.691586" stop-color="#242424"/>
<stop offset="0.762719" stop-color="#171717"/>
<stop offset="0.878741" stop-color="#0C0C0C"/>
<stop offset="0.989526" stop-color="#131313"/>
</radialGradient>
<clipPath id="clip0_39_2725">
<rect width="944.88" height="944.88" fill="white"/>
</clipPath>
<clipPath id="clip1_39_2725">
<rect width="944.88" height="944.88" fill="white"/>
</clipPath>
</defs>
</svg>
