<svg width="956" height="955" viewBox="0 0 956 955" fill="none" xmlns="http://www.w3.org/2000/svg">
<g filter="url(#filter0_if_39_2706)">
<circle cx="478.5" cy="477.5" r="472.5" fill="url(#paint0_radial_39_2706)"/>
<circle cx="478.5" cy="477.5" r="470" stroke="#D9D9D9" stroke-width="5"/>
</g>
<g clip-path="url(#clip0_39_2706)">
<g filter="url(#filter1_if_39_2706)">
<circle cx="472.5" cy="477.5" r="470" stroke="#D9D9D9" stroke-width="5"/>
</g>
<g filter="url(#filter2_ii_39_2706)">
<circle cx="475.789" cy="480.789" r="275.789" stroke="#FFCC00" stroke-width="73.5439" stroke-linejoin="round"/>
</g>
<g filter="url(#filter3_ii_39_2706)">
<path d="M462.478 587.121C458.211 587.334 454.478 586.054 451.278 583.281C448.291 580.507 446.798 576.987 446.798 572.721C446.798 568.454 448.291 564.934 451.278 562.161C454.478 559.174 458.211 557.894 462.478 558.321C465.891 558.747 469.518 559.174 473.358 559.601C477.198 559.814 480.931 560.027 484.558 560.241C486.478 560.241 487.438 559.281 487.438 557.361V518.961C487.438 517.041 486.478 516.081 484.558 516.081H394.638C388.451 516.081 384.078 513.094 381.518 507.121C380.878 505.201 380.558 503.067 380.558 500.721C380.558 497.094 381.518 493.894 383.438 491.121L476.558 354.481C480.611 348.081 486.371 344.881 493.838 344.881C499.384 344.881 504.184 347.014 508.238 351.281C512.291 355.547 514.318 360.347 514.318 365.681V487.281C514.318 489.201 515.278 490.161 517.198 490.161H549.198C552.824 490.161 555.918 491.441 558.478 494.001C561.038 496.347 562.318 499.334 562.318 502.961C562.318 506.587 561.038 509.681 558.478 512.241C555.918 514.801 552.824 516.081 549.198 516.081H517.198C515.278 516.081 514.318 517.041 514.318 518.961V557.361C514.318 559.281 515.278 560.241 517.198 560.241C520.824 560.027 524.558 559.814 528.398 559.601C532.238 559.174 535.864 558.747 539.278 558.321C543.544 557.894 547.171 559.174 550.158 562.161C553.358 564.934 554.958 568.454 554.958 572.721C554.958 576.987 553.358 580.507 550.158 583.281C547.171 586.054 543.544 587.334 539.278 587.121C532.664 586.481 526.158 585.947 519.758 585.521C513.358 585.094 507.064 584.881 500.878 584.881C494.691 584.881 488.398 585.094 481.998 585.521C475.811 585.947 469.304 586.481 462.478 587.121ZM487.438 391.601C487.438 390.321 487.011 389.467 486.158 389.041C485.518 388.614 484.771 389.041 483.918 390.321L418.318 486.641C417.891 487.494 417.677 488.027 417.677 488.241C417.677 489.521 418.531 490.161 420.238 490.161H484.558C486.478 490.161 487.438 489.201 487.438 487.281V391.601Z" fill="#FFCC00"/>
</g>
</g>
<defs>
<filter id="filter0_if_39_2706" x="1" y="0" width="955" height="955" filterUnits="userSpaceOnUse" color-interpolation-filters="sRGB">
<feFlood flood-opacity="0" result="BackgroundImageFix"/>
<feBlend mode="normal" in="SourceGraphic" in2="BackgroundImageFix" result="shape"/>
<feColorMatrix in="SourceAlpha" type="matrix" values="0 0 0 0 0 0 0 0 0 0 0 0 0 0 0 0 0 0 127 0" result="hardAlpha"/>
<feOffset dy="4"/>
<feGaussianBlur stdDeviation="2"/>
<feComposite in2="hardAlpha" operator="arithmetic" k2="-1" k3="1"/>
<feColorMatrix type="matrix" values="0 0 0 0 1 0 0 0 0 1 0 0 0 0 1 0 0 0 0.5 0"/>
<feBlend mode="normal" in2="shape" result="effect1_innerShadow_39_2706"/>
<feGaussianBlur stdDeviation="2.5" result="effect2_foregroundBlur_39_2706"/>
</filter>
<filter id="filter1_if_39_2706" x="-5" y="0" width="955" height="955" filterUnits="userSpaceOnUse" color-interpolation-filters="sRGB">
<feFlood flood-opacity="0" result="BackgroundImageFix"/>
<feBlend mode="normal" in="SourceGraphic" in2="BackgroundImageFix" result="shape"/>
<feColorMatrix in="SourceAlpha" type="matrix" values="0 0 0 0 0 0 0 0 0 0 0 0 0 0 0 0 0 0 127 0" result="hardAlpha"/>
<feOffset dy="4"/>
<feGaussianBlur stdDeviation="2"/>
<feComposite in2="hardAlpha" operator="arithmetic" k2="-1" k3="1"/>
<feColorMatrix type="matrix" values="0 0 0 0 1 0 0 0 0 1 0 0 0 0 1 0 0 0 0.5 0"/>
<feBlend mode="normal" in2="shape" result="effect1_innerShadow_39_2706"/>
<feGaussianBlur stdDeviation="2.5" result="effect2_foregroundBlur_39_2706"/>
</filter>
<filter id="filter2_ii_39_2706" x="155.872" y="157.197" width="643.511" height="643.508" filterUnits="userSpaceOnUse" color-interpolation-filters="sRGB">
<feFlood flood-opacity="0" result="BackgroundImageFix"/>
<feBlend mode="normal" in="SourceGraphic" in2="BackgroundImageFix" result="shape"/>
<feColorMatrix in="SourceAlpha" type="matrix" values="0 0 0 0 0 0 0 0 0 0 0 0 0 0 0 0 0 0 127 0" result="hardAlpha"/>
<feOffset dx="11.0316" dy="7.35439"/>
<feGaussianBlur stdDeviation="13.9733"/>
<feComposite in2="hardAlpha" operator="arithmetic" k2="-1" k3="1"/>
<feColorMatrix type="matrix" values="0 0 0 0 0.351397 0 0 0 0 0.264461 0 0 0 0 0.438333 0 0 0 1 0"/>
<feBlend mode="normal" in2="shape" result="effect1_innerShadow_39_2706"/>
<feColorMatrix in="SourceAlpha" type="matrix" values="0 0 0 0 0 0 0 0 0 0 0 0 0 0 0 0 0 0 127 0" result="hardAlpha"/>
<feOffset dx="-7.35439" dy="-11.0316"/>
<feGaussianBlur stdDeviation="7.35439"/>
<feComposite in2="hardAlpha" operator="arithmetic" k2="-1" k3="1"/>
<feColorMatrix type="matrix" values="0 0 0 0 0.948333 0 0 0 0 0.661052 0 0 0 0 0.499456 0 0 0 0.1 0"/>
<feBlend mode="normal" in2="effect1_innerShadow_39_2706" result="effect2_innerShadow_39_2706"/>
</filter>
<filter id="filter3_ii_39_2706" x="373.204" y="333.849" width="200.144" height="260.946" filterUnits="userSpaceOnUse" color-interpolation-filters="sRGB">
<feFlood flood-opacity="0" result="BackgroundImageFix"/>
<feBlend mode="normal" in="SourceGraphic" in2="BackgroundImageFix" result="shape"/>
<feColorMatrix in="SourceAlpha" type="matrix" values="0 0 0 0 0 0 0 0 0 0 0 0 0 0 0 0 0 0 127 0" result="hardAlpha"/>
<feOffset dx="11.0316" dy="7.35439"/>
<feGaussianBlur stdDeviation="13.9733"/>
<feComposite in2="hardAlpha" operator="arithmetic" k2="-1" k3="1"/>
<feColorMatrix type="matrix" values="0 0 0 0 0.351397 0 0 0 0 0.264461 0 0 0 0 0.438333 0 0 0 1 0"/>
<feBlend mode="normal" in2="shape" result="effect1_innerShadow_39_2706"/>
<feColorMatrix in="SourceAlpha" type="matrix" values="0 0 0 0 0 0 0 0 0 0 0 0 0 0 0 0 0 0 127 0" result="hardAlpha"/>
<feOffset dx="-7.35439" dy="-11.0316"/>
<feGaussianBlur stdDeviation="7.35439"/>
<feComposite in2="hardAlpha" operator="arithmetic" k2="-1" k3="1"/>
<feColorMatrix type="matrix" values="0 0 0 0 0.948333 0 0 0 0 0.661052 0 0 0 0 0.499456 0 0 0 0.1 0"/>
<feBlend mode="normal" in2="effect1_innerShadow_39_2706" result="effect2_innerShadow_39_2706"/>
</filter>
<radialGradient id="paint0_radial_39_2706" cx="0" cy="0" r="1" gradientUnits="userSpaceOnUse" gradientTransform="translate(478.5 477.5) rotate(45) scale(668.386)">
<stop offset="0.1" stop-color="white"/>
<stop offset="0.225" stop-color="white"/>
<stop offset="0.585" stop-color="#E3E2E1"/>
<stop offset="0.73" stop-color="#F2F2F1"/>
<stop offset="0.855" stop-color="white"/>
<stop offset="1" stop-color="#F1F0F0"/>
</radialGradient>
<clipPath id="clip0_39_2706">
<rect width="944.88" height="944.88" fill="white" transform="translate(0 5)"/>
</clipPath>
</defs>
</svg>
